<?xml version="1.0" encoding="utf-8"?>
<!-- Generator: Adobe Illustrator 16.0.0, SVG Export Plug-In . SVG Version: 6.00 Build 0)  -->
<!DOCTYPE svg PUBLIC "-//W3C//DTD SVG 1.1//EN" "http://www.w3.org/Graphics/SVG/1.1/DTD/svg11.dtd">
<svg version="1.1" id="Layer_1" xmlns="http://www.w3.org/2000/svg" xmlns:xlink="http://www.w3.org/1999/xlink" x="0px" y="0px"
	 width="542px" height="355px" viewBox="0 0 542 355" enable-background="new 0 0 542 355" xml:space="preserve">
<rect x="20.5" y="123.5" fill="none" stroke="#000000" stroke-width="2" stroke-miterlimit="10" width="503" height="34.5"/>
<g>
	<rect x="57.208" y="161" fill="#C2000B" width="116.959" height="38.596"/>
	<g>
		<path fill="#FFFFFF" d="M76.788,179.069c0,1.26-0.223,2.316-0.67,3.168c-0.446,0.853-1.102,1.477-1.966,1.871l2.578,2.879h-2.908
			l-1.963-2.402H71.69c-1.641,0-2.9-0.477-3.779-1.428c-0.879-0.953-1.318-2.319-1.318-4.102s0.44-3.144,1.322-4.084
			c0.881-0.939,2.145-1.41,3.791-1.41s2.904,0.475,3.776,1.422C76.352,175.931,76.788,177.293,76.788,179.069z M68.973,179.069
			c0,1.197,0.227,2.098,0.681,2.703s1.133,0.908,2.036,0.908c1.812,0,2.717-1.203,2.717-3.611c0-2.411-0.901-3.617-2.703-3.617
			c-0.903,0-1.584,0.304-2.043,0.911C69.203,176.972,68.973,177.874,68.973,179.069z"/>
		<path fill="#FFFFFF" d="M84.632,184.438l-0.3-1.047h-0.117c-0.239,0.381-0.579,0.675-1.018,0.882
			c-0.439,0.208-0.94,0.312-1.501,0.312c-0.962,0-1.687-0.258-2.175-0.772c-0.488-0.516-0.732-1.257-0.732-2.224v-5.339h2.234v4.782
			c0,0.592,0.105,1.034,0.315,1.33c0.21,0.295,0.544,0.443,1.003,0.443c0.625,0,1.077-0.209,1.355-0.627
			c0.278-0.417,0.417-1.109,0.417-2.076v-3.853h2.234v8.188H84.632z"/>
		<path fill="#FFFFFF" d="M92.396,184.585c-1.318,0-2.349-0.363-3.091-1.092c-0.742-0.727-1.113-1.758-1.113-3.09
			c0-1.372,0.343-2.434,1.029-3.183c0.686-0.75,1.634-1.124,2.845-1.124c1.157,0,2.058,0.329,2.703,0.988s0.967,1.57,0.967,2.732
			v1.084h-5.281c0.024,0.635,0.212,1.13,0.564,1.486s0.845,0.535,1.479,0.535c0.493,0,0.959-0.052,1.399-0.154
			s0.898-0.266,1.377-0.49v1.729c-0.391,0.195-0.808,0.34-1.252,0.436C93.578,184.537,93.036,184.585,92.396,184.585z
			 M92.081,177.686c-0.474,0-0.845,0.15-1.113,0.45c-0.269,0.301-0.422,0.727-0.461,1.278h3.135
			c-0.01-0.552-0.154-0.978-0.432-1.278C92.931,177.836,92.555,177.686,92.081,177.686z"/>
		<path fill="#FFFFFF" d="M102.123,176.097c0.303,0,0.554,0.021,0.754,0.065l-0.168,2.095c-0.181-0.049-0.4-0.073-0.659-0.073
			c-0.713,0-1.269,0.183-1.666,0.55c-0.398,0.365-0.597,0.879-0.597,1.537v4.168h-2.234v-8.188h1.692l0.33,1.377h0.11
			c0.254-0.459,0.597-0.829,1.029-1.109C101.145,176.236,101.615,176.097,102.123,176.097z"/>
		<path fill="#FFFFFF" d="M103.192,176.25h2.446l1.545,4.606c0.132,0.401,0.222,0.875,0.271,1.422h0.044
			c0.054-0.503,0.159-0.977,0.315-1.422l1.516-4.606h2.395l-3.464,9.235c-0.317,0.854-0.771,1.494-1.358,1.92
			c-0.589,0.424-1.276,0.637-2.062,0.637c-0.386,0-0.764-0.042-1.135-0.125v-1.771c0.269,0.062,0.562,0.095,0.879,0.095
			c0.396,0,0.741-0.121,1.036-0.362c0.295-0.242,0.526-0.607,0.692-1.096l0.132-0.402L103.192,176.25z"/>
		<path fill="#FFFFFF" d="M123.136,184.438h-6.167V173.73h6.167v1.86h-3.896v2.352h3.625v1.859h-3.625v2.762h3.896V184.438z"/>
		<path fill="#FFFFFF" d="M132.752,184.438h-2.234v-4.783c0-0.59-0.105-1.033-0.315-1.329c-0.21-0.295-0.544-0.442-1.003-0.442
			c-0.625,0-1.077,0.208-1.355,0.626c-0.278,0.417-0.417,1.109-0.417,2.076v3.853h-2.234v-8.188h1.707l0.3,1.048h0.125
			c0.249-0.396,0.592-0.695,1.029-0.897c0.437-0.203,0.934-0.304,1.491-0.304c0.952,0,1.675,0.257,2.168,0.772
			c0.493,0.515,0.74,1.259,0.74,2.229V184.438z"/>
		<path fill="#FFFFFF" d="M142.179,176.25v1.136l-1.282,0.329c0.234,0.366,0.352,0.776,0.352,1.23c0,0.879-0.307,1.563-0.919,2.055
			c-0.613,0.49-1.464,0.735-2.553,0.735l-0.403-0.021l-0.33-0.037c-0.229,0.176-0.344,0.372-0.344,0.586
			c0,0.322,0.41,0.484,1.23,0.484h1.392c0.898,0,1.583,0.192,2.054,0.578s0.707,0.952,0.707,1.699c0,0.957-0.399,1.699-1.197,2.227
			c-0.799,0.527-1.945,0.791-3.439,0.791c-1.143,0-2.016-0.199-2.619-0.597c-0.603-0.398-0.904-0.956-0.904-1.674
			c0-0.493,0.154-0.906,0.461-1.237c0.308-0.332,0.759-0.569,1.355-0.711c-0.229-0.098-0.43-0.258-0.601-0.479
			c-0.171-0.223-0.256-0.458-0.256-0.707c0-0.312,0.09-0.572,0.271-0.78c0.181-0.207,0.442-0.411,0.784-0.611
			c-0.43-0.186-0.771-0.483-1.022-0.894s-0.377-0.894-0.377-1.45c0-0.894,0.291-1.584,0.872-2.072s1.411-0.732,2.49-0.732
			c0.229,0,0.501,0.021,0.817,0.062c0.314,0.042,0.516,0.072,0.604,0.092H142.179z M135.858,185.596c0,0.308,0.147,0.55,0.443,0.726
			c0.295,0.176,0.709,0.264,1.241,0.264c0.801,0,1.428-0.11,1.882-0.33s0.681-0.52,0.681-0.9c0-0.309-0.134-0.521-0.403-0.638
			s-0.684-0.176-1.245-0.176h-1.157c-0.41,0-0.753,0.097-1.029,0.289C135.996,185.023,135.858,185.278,135.858,185.596z
			 M136.671,178.931c0,0.444,0.101,0.796,0.304,1.055c0.202,0.259,0.511,0.389,0.926,0.389c0.42,0,0.728-0.13,0.923-0.389
			s0.293-0.61,0.293-1.055c0-0.986-0.405-1.479-1.216-1.479C137.081,177.451,136.671,177.944,136.671,178.931z"/>
		<path fill="#FFFFFF" d="M143.431,174.134c0-0.728,0.405-1.092,1.216-1.092s1.216,0.364,1.216,1.092
			c0,0.347-0.102,0.616-0.304,0.809c-0.203,0.193-0.506,0.289-0.912,0.289C143.836,175.231,143.431,174.866,143.431,174.134z
			 M145.76,184.438h-2.234v-8.188h2.234V184.438z"/>
		<path fill="#FFFFFF" d="M155.663,184.438h-2.234v-4.783c0-0.59-0.105-1.033-0.315-1.329c-0.21-0.295-0.544-0.442-1.003-0.442
			c-0.625,0-1.077,0.208-1.355,0.626c-0.278,0.417-0.417,1.109-0.417,2.076v3.853h-2.234v-8.188h1.707l0.3,1.048h0.125
			c0.249-0.396,0.592-0.695,1.029-0.897c0.437-0.203,0.934-0.304,1.491-0.304c0.952,0,1.675,0.257,2.168,0.772
			c0.493,0.515,0.74,1.259,0.74,2.229V184.438z"/>
		<path fill="#FFFFFF" d="M161.668,184.585c-1.318,0-2.349-0.363-3.091-1.092c-0.742-0.727-1.113-1.758-1.113-3.09
			c0-1.372,0.343-2.434,1.029-3.183c0.686-0.75,1.634-1.124,2.845-1.124c1.157,0,2.058,0.329,2.703,0.988s0.967,1.57,0.967,2.732
			v1.084h-5.281c0.024,0.635,0.212,1.13,0.564,1.486s0.845,0.535,1.479,0.535c0.493,0,0.959-0.052,1.399-0.154
			s0.898-0.266,1.377-0.49v1.729c-0.391,0.195-0.808,0.34-1.252,0.436C162.85,184.537,162.308,184.585,161.668,184.585z
			 M161.354,177.686c-0.474,0-0.845,0.15-1.113,0.45c-0.269,0.301-0.422,0.727-0.461,1.278h3.135
			c-0.01-0.552-0.154-0.978-0.432-1.278C162.203,177.836,161.827,177.686,161.354,177.686z"/>
	</g>
</g>
<g>
	<rect x="353.67" y="161" fill="#C2000B" width="116.958" height="38.597"/>
	<g>
		<path fill="#FFFFFF" d="M373.25,179.069c0,1.26-0.223,2.316-0.67,3.168c-0.446,0.853-1.102,1.477-1.966,1.871l2.578,2.879h-2.908
			l-1.963-2.402h-0.168c-1.641,0-2.9-0.477-3.779-1.428c-0.879-0.953-1.318-2.319-1.318-4.102s0.44-3.144,1.322-4.084
			c0.881-0.939,2.145-1.41,3.791-1.41s2.904,0.475,3.776,1.422C372.814,175.931,373.25,177.293,373.25,179.069z M365.435,179.069
			c0,1.197,0.227,2.098,0.681,2.703s1.133,0.908,2.036,0.908c1.812,0,2.717-1.203,2.717-3.611c0-2.411-0.901-3.617-2.703-3.617
			c-0.903,0-1.584,0.304-2.043,0.911C365.665,176.972,365.435,177.874,365.435,179.069z"/>
		<path fill="#FFFFFF" d="M381.094,184.438l-0.3-1.047h-0.117c-0.239,0.381-0.579,0.675-1.018,0.882
			c-0.439,0.208-0.94,0.312-1.501,0.312c-0.962,0-1.687-0.258-2.175-0.772c-0.488-0.516-0.732-1.257-0.732-2.224v-5.339h2.234v4.782
			c0,0.592,0.105,1.034,0.315,1.33c0.21,0.295,0.544,0.443,1.003,0.443c0.625,0,1.077-0.209,1.355-0.627
			c0.278-0.417,0.417-1.109,0.417-2.076v-3.853h2.234v8.188H381.094z"/>
		<path fill="#FFFFFF" d="M388.858,184.585c-1.318,0-2.349-0.363-3.091-1.092c-0.742-0.727-1.113-1.758-1.113-3.09
			c0-1.372,0.343-2.434,1.029-3.183c0.686-0.75,1.634-1.124,2.845-1.124c1.157,0,2.058,0.329,2.703,0.988s0.967,1.57,0.967,2.732
			v1.084h-5.281c0.024,0.635,0.212,1.13,0.564,1.486s0.845,0.535,1.479,0.535c0.493,0,0.959-0.052,1.399-0.154
			s0.898-0.266,1.377-0.49v1.729c-0.391,0.195-0.808,0.34-1.252,0.436C390.04,184.537,389.498,184.585,388.858,184.585z
			 M388.543,177.686c-0.474,0-0.845,0.15-1.113,0.45c-0.269,0.301-0.422,0.727-0.461,1.278h3.135
			c-0.01-0.552-0.154-0.978-0.432-1.278C389.393,177.836,389.017,177.686,388.543,177.686z"/>
		<path fill="#FFFFFF" d="M398.584,176.097c0.303,0,0.554,0.021,0.754,0.065l-0.169,2.095c-0.18-0.049-0.4-0.073-0.659-0.073
			c-0.713,0-1.269,0.183-1.666,0.55c-0.398,0.365-0.597,0.879-0.597,1.537v4.168h-2.234v-8.188h1.692l0.33,1.377h0.11
			c0.254-0.459,0.597-0.829,1.029-1.109C397.607,176.236,398.077,176.097,398.584,176.097z"/>
		<path fill="#FFFFFF" d="M399.654,176.25h2.445l1.546,4.606c0.132,0.401,0.222,0.875,0.271,1.422h0.045
			c0.053-0.503,0.158-0.977,0.314-1.422l1.516-4.606h2.396l-3.464,9.235c-0.318,0.854-0.771,1.494-1.359,1.92
			c-0.588,0.424-1.275,0.637-2.062,0.637c-0.386,0-0.765-0.042-1.136-0.125v-1.771c0.27,0.062,0.562,0.095,0.879,0.095
			c0.396,0,0.741-0.121,1.037-0.362c0.295-0.242,0.525-0.607,0.691-1.096l0.133-0.402L399.654,176.25z"/>
		<path fill="#FFFFFF" d="M419.598,184.438h-6.167V173.73h6.167v1.86h-3.896v2.352h3.625v1.859h-3.625v2.762h3.896V184.438z"/>
		<path fill="#FFFFFF" d="M429.215,184.438h-2.234v-4.783c0-0.59-0.105-1.033-0.314-1.329c-0.211-0.295-0.545-0.442-1.004-0.442
			c-0.625,0-1.076,0.208-1.355,0.626c-0.277,0.417-0.417,1.109-0.417,2.076v3.853h-2.233v-8.188h1.706l0.3,1.048h0.125
			c0.249-0.396,0.592-0.695,1.029-0.897c0.437-0.203,0.934-0.304,1.49-0.304c0.952,0,1.675,0.257,2.168,0.772
			c0.493,0.515,0.74,1.259,0.74,2.229V184.438z"/>
		<path fill="#FFFFFF" d="M438.641,176.25v1.136l-1.281,0.329c0.234,0.366,0.352,0.776,0.352,1.23c0,0.879-0.307,1.563-0.92,2.055
			c-0.613,0.49-1.463,0.735-2.553,0.735l-0.402-0.021l-0.33-0.037c-0.229,0.176-0.344,0.372-0.344,0.586
			c0,0.322,0.41,0.484,1.23,0.484h1.392c0.898,0,1.583,0.192,2.054,0.578c0.472,0.386,0.707,0.952,0.707,1.699
			c0,0.957-0.398,1.699-1.197,2.227s-1.944,0.791-3.438,0.791c-1.143,0-2.016-0.199-2.618-0.597
			c-0.604-0.398-0.904-0.956-0.904-1.674c0-0.493,0.153-0.906,0.461-1.237c0.308-0.332,0.76-0.569,1.355-0.711
			c-0.23-0.098-0.43-0.258-0.602-0.479c-0.17-0.223-0.256-0.458-0.256-0.707c0-0.312,0.09-0.572,0.271-0.78
			c0.18-0.207,0.441-0.411,0.783-0.611c-0.43-0.186-0.771-0.483-1.021-0.894c-0.252-0.41-0.377-0.894-0.377-1.45
			c0-0.894,0.29-1.584,0.871-2.072s1.411-0.732,2.49-0.732c0.229,0,0.502,0.021,0.816,0.062c0.314,0.042,0.517,0.072,0.604,0.092
			H438.641z M432.32,185.596c0,0.308,0.146,0.55,0.443,0.726c0.295,0.176,0.709,0.264,1.24,0.264c0.801,0,1.429-0.11,1.883-0.33
			s0.682-0.52,0.682-0.9c0-0.309-0.135-0.521-0.403-0.638s-0.684-0.176-1.245-0.176h-1.157c-0.41,0-0.753,0.097-1.028,0.289
			C432.457,185.023,432.32,185.278,432.32,185.596z M433.133,178.931c0,0.444,0.102,0.796,0.305,1.055
			c0.201,0.259,0.511,0.389,0.926,0.389c0.42,0,0.728-0.13,0.923-0.389s0.293-0.61,0.293-1.055c0-0.986-0.405-1.479-1.216-1.479
			C433.543,177.451,433.133,177.944,433.133,178.931z"/>
		<path fill="#FFFFFF" d="M439.893,174.134c0-0.728,0.406-1.092,1.217-1.092s1.215,0.364,1.215,1.092
			c0,0.347-0.102,0.616-0.304,0.809c-0.202,0.193-0.507,0.289-0.911,0.289C440.299,175.231,439.893,174.866,439.893,174.134z
			 M442.223,184.438h-2.234v-8.188h2.234V184.438z"/>
		<path fill="#FFFFFF" d="M452.125,184.438h-2.234v-4.783c0-0.59-0.105-1.033-0.314-1.329c-0.211-0.295-0.545-0.442-1.004-0.442
			c-0.625,0-1.076,0.208-1.355,0.626c-0.277,0.417-0.417,1.109-0.417,2.076v3.853h-2.233v-8.188h1.706l0.3,1.048h0.125
			c0.249-0.396,0.592-0.695,1.029-0.897c0.437-0.203,0.934-0.304,1.49-0.304c0.952,0,1.675,0.257,2.168,0.772
			c0.493,0.515,0.74,1.259,0.74,2.229V184.438z"/>
		<path fill="#FFFFFF" d="M458.131,184.585c-1.318,0-2.35-0.363-3.092-1.092c-0.742-0.727-1.113-1.758-1.113-3.09
			c0-1.372,0.344-2.434,1.029-3.183c0.686-0.75,1.635-1.124,2.846-1.124c1.157,0,2.059,0.329,2.703,0.988s0.967,1.57,0.967,2.732
			v1.084h-5.281c0.024,0.635,0.213,1.13,0.564,1.486s0.844,0.535,1.479,0.535c0.494,0,0.96-0.052,1.399-0.154
			s0.898-0.266,1.377-0.49v1.729c-0.391,0.195-0.808,0.34-1.253,0.436C459.312,184.537,458.77,184.585,458.131,184.585z
			 M457.815,177.686c-0.474,0-0.845,0.15-1.113,0.45c-0.269,0.301-0.423,0.727-0.462,1.278h3.135
			c-0.01-0.552-0.153-0.978-0.432-1.278C458.665,177.836,458.289,177.686,457.815,177.686z"/>
	</g>
</g>
<rect x="62.471" y="233.807" fill="#2E58A6" width="106.433" height="100"/>
<g>
	<path d="M10.793,339.596c-0.854,0-1.516,0.321-1.985,0.963c-0.469,0.643-0.703,1.537-0.703,2.685c0,2.388,0.896,3.581,2.688,3.581
		c0.752,0,1.663-0.188,2.732-0.563v1.904c-0.879,0.366-1.86,0.55-2.944,0.55c-1.558,0-2.749-0.473-3.574-1.418
		s-1.238-2.301-1.238-4.068c0-1.113,0.203-2.088,0.608-2.926s0.987-1.48,1.747-1.926c0.759-0.447,1.649-0.671,2.669-0.671
		c1.04,0,2.085,0.251,3.135,0.755l-0.732,1.846c-0.4-0.191-0.803-0.357-1.208-0.498C11.582,339.666,11.184,339.596,10.793,339.596z"
		/>
	<path d="M19.333,348.715c-1.318,0-2.349-0.364-3.091-1.092s-1.113-1.758-1.113-3.091c0-1.372,0.343-2.433,1.029-3.183
		c0.686-0.749,1.634-1.124,2.845-1.124c1.157,0,2.058,0.329,2.703,0.989c0.645,0.658,0.967,1.569,0.967,2.731v1.084h-5.281
		c0.024,0.635,0.212,1.13,0.564,1.487c0.352,0.355,0.845,0.534,1.479,0.534c0.493,0,0.959-0.052,1.399-0.153
		c0.439-0.104,0.898-0.267,1.377-0.491v1.729c-0.391,0.195-0.808,0.341-1.252,0.437C20.515,348.666,19.973,348.715,19.333,348.715z
		 M19.018,341.814c-0.474,0-0.845,0.15-1.113,0.451s-0.422,0.727-0.461,1.277h3.135c-0.01-0.551-0.154-0.977-0.432-1.277
		S19.492,341.814,19.018,341.814z"/>
	<path d="M32.048,348.568h-2.234v-4.783c0-0.591-0.105-1.033-0.315-1.33c-0.21-0.295-0.544-0.442-1.003-0.442
		c-0.625,0-1.077,0.208-1.355,0.626s-0.417,1.109-0.417,2.076v3.854h-2.234v-8.189h1.707l0.3,1.048h0.125
		c0.249-0.396,0.592-0.694,1.029-0.897c0.437-0.202,0.934-0.304,1.491-0.304c0.952,0,1.675,0.258,2.168,0.772
		c0.493,0.516,0.74,1.259,0.74,2.23V348.568z"/>
	<path d="M37.797,346.935c0.391,0,0.859-0.085,1.406-0.257v1.663c-0.557,0.249-1.24,0.374-2.051,0.374
		c-0.894,0-1.544-0.227-1.952-0.678c-0.408-0.451-0.612-1.129-0.612-2.033v-3.947H33.52v-0.945l1.23-0.746l0.645-1.729h1.428v1.742
		h2.292v1.678h-2.292v3.947c0,0.318,0.089,0.553,0.268,0.703C37.269,346.859,37.504,346.935,37.797,346.935z"/>
	<path d="M45.429,340.226c0.303,0,0.554,0.022,0.754,0.065l-0.168,2.096c-0.181-0.049-0.4-0.074-0.659-0.074
		c-0.713,0-1.269,0.184-1.666,0.55c-0.398,0.366-0.597,0.879-0.597,1.538v4.168h-2.234v-8.189h1.692l0.33,1.377h0.11
		c0.254-0.459,0.597-0.828,1.029-1.109C44.452,340.366,44.921,340.226,45.429,340.226z"/>
	<path d="M52.871,348.568l-0.432-1.113H52.38c-0.376,0.473-0.763,0.801-1.161,0.984c-0.398,0.184-0.917,0.275-1.557,0.275
		c-0.786,0-1.405-0.225-1.856-0.674c-0.452-0.449-0.678-1.09-0.678-1.92c0-0.869,0.304-1.51,0.912-1.922
		c0.607-0.412,1.524-0.641,2.75-0.686l1.421-0.043v-0.359c0-0.83-0.425-1.245-1.274-1.245c-0.654,0-1.423,0.198-2.307,0.593
		l-0.74-1.508c0.942-0.494,1.987-0.74,3.135-0.74c1.099,0,1.941,0.239,2.527,0.718s0.879,1.206,0.879,2.183v5.457H52.871z
		 M52.211,344.773l-0.864,0.029c-0.649,0.02-1.133,0.137-1.45,0.352s-0.476,0.543-0.476,0.982c0,0.629,0.361,0.944,1.084,0.944
		c0.518,0,0.931-0.149,1.242-0.446c0.31-0.299,0.465-0.693,0.465-1.188V344.773z"/>
	<path d="M58.964,348.568H56.73v-11.396h2.234V348.568z"/>
	<path d="M61.213,338.263c0-0.728,0.405-1.091,1.216-1.091s1.216,0.363,1.216,1.091c0,0.347-0.102,0.616-0.304,0.81
		s-0.506,0.289-0.912,0.289C61.618,339.361,61.213,338.995,61.213,338.263z M63.542,348.568h-2.234v-8.189h2.234V348.568z"/>
	<path d="M71.584,348.568h-6.467v-1.318l3.794-5.164h-3.567v-1.707h6.108v1.451l-3.691,5.031h3.823V348.568z"/>
	<path d="M76.909,348.715c-1.318,0-2.349-0.364-3.091-1.092s-1.113-1.758-1.113-3.091c0-1.372,0.343-2.433,1.029-3.183
		c0.686-0.749,1.634-1.124,2.845-1.124c1.157,0,2.058,0.329,2.703,0.989c0.645,0.658,0.967,1.569,0.967,2.731v1.084h-5.281
		c0.024,0.635,0.212,1.13,0.564,1.487c0.352,0.355,0.845,0.534,1.479,0.534c0.493,0,0.959-0.052,1.399-0.153
		c0.439-0.104,0.898-0.267,1.377-0.491v1.729c-0.391,0.195-0.808,0.341-1.252,0.437C78.09,348.666,77.548,348.715,76.909,348.715z
		 M76.594,341.814c-0.474,0-0.845,0.15-1.113,0.451s-0.422,0.727-0.461,1.277h3.135c-0.01-0.551-0.154-0.977-0.432-1.277
		S77.067,341.814,76.594,341.814z"/>
	<path d="M84.658,348.715c-0.962,0-1.718-0.374-2.267-1.121c-0.55-0.747-0.824-1.782-0.824-3.105c0-1.343,0.279-2.389,0.839-3.139
		c0.559-0.749,1.329-1.124,2.311-1.124c1.03,0,1.816,0.4,2.358,1.201h0.073c-0.112-0.61-0.168-1.155-0.168-1.634v-2.621h2.241
		v11.396h-1.714l-0.432-1.062h-0.095C86.472,348.312,85.698,348.715,84.658,348.715z M85.441,346.935
		c0.571,0,0.99-0.166,1.256-0.498c0.266-0.332,0.411-0.896,0.436-1.692v-0.241c0-0.879-0.136-1.509-0.406-1.89
		c-0.271-0.381-0.712-0.571-1.322-0.571c-0.498,0-0.885,0.212-1.161,0.634s-0.414,1.036-0.414,1.842s0.139,1.41,0.417,1.812
		S84.924,346.935,85.441,346.935z"/>
	<path d="M104.243,348.568h-2.578l-2.805-4.512l-0.959,0.688v3.824h-2.271v-10.709H97.9v4.9l0.894-1.26l2.9-3.641h2.52l-3.735,4.739
		L104.243,348.568z"/>
	<path d="M112.973,348.568h-2.234v-4.783c0-0.591-0.105-1.033-0.315-1.33c-0.21-0.295-0.544-0.442-1.003-0.442
		c-0.625,0-1.077,0.208-1.355,0.626s-0.417,1.109-0.417,2.076v3.854h-2.234v-8.189h1.707l0.3,1.048h0.125
		c0.249-0.396,0.592-0.694,1.029-0.897c0.437-0.202,0.934-0.304,1.491-0.304c0.952,0,1.675,0.258,2.168,0.772
		c0.493,0.516,0.74,1.259,0.74,2.23V348.568z"/>
	<path d="M122.714,344.459c0,1.333-0.352,2.375-1.055,3.127s-1.682,1.129-2.937,1.129c-0.786,0-1.479-0.172-2.08-0.518
		c-0.601-0.344-1.062-0.838-1.384-1.482s-0.483-1.396-0.483-2.256c0-1.338,0.349-2.378,1.047-3.12s1.68-1.113,2.944-1.113
		c0.786,0,1.479,0.171,2.08,0.513s1.062,0.832,1.384,1.473C122.553,342.85,122.714,343.6,122.714,344.459z M117.053,344.459
		c0,0.811,0.133,1.424,0.399,1.838c0.266,0.416,0.7,0.623,1.3,0.623c0.596,0,1.024-0.206,1.286-0.619
		c0.261-0.412,0.392-1.026,0.392-1.842c0-0.811-0.132-1.418-0.396-1.824c-0.264-0.404-0.696-0.607-1.296-0.607
		c-0.596,0-1.025,0.201-1.289,0.604C117.185,343.035,117.053,343.644,117.053,344.459z"/>
	<path d="M131.291,348.568l-0.63-2.864l-0.85-3.618h-0.051l-1.494,6.482h-2.402l-2.329-8.189h2.227l0.945,3.626
		c0.151,0.649,0.305,1.546,0.461,2.688h0.044c0.02-0.371,0.105-0.96,0.256-1.766l0.117-0.623l1.011-3.926h2.461l0.959,3.926
		c0.02,0.107,0.05,0.267,0.092,0.477c0.041,0.21,0.082,0.434,0.121,0.67c0.039,0.237,0.074,0.469,0.106,0.695
		c0.032,0.229,0.05,0.41,0.055,0.547h0.044c0.044-0.352,0.122-0.834,0.234-1.447c0.112-0.612,0.193-1.026,0.242-1.241l0.981-3.626
		h2.19l-2.358,8.189H131.291z"/>
	<path d="M139.633,348.568h-2.234v-11.396h2.234V348.568z"/>
	<path d="M145.683,348.715c-1.318,0-2.349-0.364-3.091-1.092s-1.113-1.758-1.113-3.091c0-1.372,0.343-2.433,1.029-3.183
		c0.686-0.749,1.634-1.124,2.845-1.124c1.157,0,2.058,0.329,2.703,0.989c0.645,0.658,0.967,1.569,0.967,2.731v1.084h-5.281
		c0.024,0.635,0.212,1.13,0.564,1.487c0.352,0.355,0.845,0.534,1.479,0.534c0.493,0,0.959-0.052,1.399-0.153
		c0.439-0.104,0.898-0.267,1.377-0.491v1.729c-0.391,0.195-0.808,0.341-1.252,0.437
		C146.865,348.666,146.323,348.715,145.683,348.715z M145.368,341.814c-0.474,0-0.845,0.15-1.113,0.451s-0.422,0.727-0.461,1.277
		h3.135c-0.01-0.551-0.154-0.977-0.432-1.277S145.842,341.814,145.368,341.814z"/>
	<path d="M153.432,348.715c-0.962,0-1.718-0.374-2.267-1.121c-0.55-0.747-0.824-1.782-0.824-3.105c0-1.343,0.279-2.389,0.839-3.139
		c0.559-0.749,1.329-1.124,2.311-1.124c1.03,0,1.816,0.4,2.358,1.201h0.073c-0.112-0.61-0.168-1.155-0.168-1.634v-2.621h2.241
		v11.396h-1.714l-0.432-1.062h-0.095C155.246,348.312,154.472,348.715,153.432,348.715z M154.216,346.935
		c0.571,0,0.99-0.166,1.256-0.498c0.266-0.332,0.411-0.896,0.436-1.692v-0.241c0-0.879-0.136-1.509-0.406-1.89
		c-0.271-0.381-0.712-0.571-1.322-0.571c-0.498,0-0.885,0.212-1.161,0.634s-0.414,1.036-0.414,1.842s0.139,1.41,0.417,1.812
		S153.698,346.935,154.216,346.935z"/>
	<path d="M167.458,340.379v1.136l-1.282,0.329c0.234,0.367,0.352,0.777,0.352,1.23c0,0.879-0.307,1.564-0.919,2.055
		c-0.613,0.49-1.464,0.736-2.553,0.736l-0.403-0.021l-0.33-0.037c-0.229,0.176-0.344,0.371-0.344,0.586
		c0,0.322,0.41,0.483,1.23,0.483h1.392c0.898,0,1.583,0.192,2.054,0.579c0.471,0.385,0.707,0.951,0.707,1.699
		c0,0.957-0.399,1.699-1.197,2.227c-0.799,0.527-1.945,0.791-3.439,0.791c-1.143,0-2.016-0.199-2.619-0.598
		s-0.904-0.955-0.904-1.674c0-0.492,0.154-0.905,0.461-1.237s0.759-0.569,1.355-0.71c-0.229-0.098-0.43-0.258-0.601-0.48
		c-0.171-0.222-0.256-0.457-0.256-0.707c0-0.312,0.09-0.572,0.271-0.779s0.442-0.412,0.784-0.611
		c-0.43-0.186-0.771-0.484-1.022-0.895s-0.377-0.893-0.377-1.449c0-0.895,0.291-1.585,0.872-2.073s1.411-0.732,2.49-0.732
		c0.229,0,0.501,0.021,0.817,0.062c0.314,0.043,0.516,0.072,0.604,0.092H167.458z M161.137,349.725c0,0.309,0.147,0.55,0.443,0.726
		c0.295,0.176,0.709,0.264,1.241,0.264c0.801,0,1.428-0.11,1.882-0.329c0.454-0.221,0.681-0.521,0.681-0.901
		c0-0.308-0.134-0.521-0.403-0.638s-0.684-0.176-1.245-0.176h-1.157c-0.41,0-0.753,0.097-1.029,0.289
		C161.275,349.152,161.137,349.408,161.137,349.725z M161.95,343.061c0,0.443,0.101,0.795,0.304,1.055
		c0.202,0.258,0.511,0.388,0.926,0.388c0.42,0,0.728-0.13,0.923-0.388c0.195-0.26,0.293-0.611,0.293-1.055
		c0-0.986-0.405-1.48-1.216-1.48C162.36,341.58,161.95,342.074,161.95,343.061z"/>
	<path d="M172.512,348.715c-1.318,0-2.349-0.364-3.091-1.092s-1.113-1.758-1.113-3.091c0-1.372,0.343-2.433,1.029-3.183
		c0.686-0.749,1.634-1.124,2.845-1.124c1.157,0,2.058,0.329,2.703,0.989c0.645,0.658,0.967,1.569,0.967,2.731v1.084h-5.281
		c0.024,0.635,0.212,1.13,0.564,1.487c0.352,0.355,0.845,0.534,1.479,0.534c0.493,0,0.959-0.052,1.399-0.153
		c0.439-0.104,0.898-0.267,1.377-0.491v1.729c-0.391,0.195-0.808,0.341-1.252,0.437
		C173.693,348.666,173.151,348.715,172.512,348.715z M172.197,341.814c-0.474,0-0.845,0.15-1.113,0.451s-0.422,0.727-0.461,1.277
		h3.135c-0.01-0.551-0.154-0.977-0.432-1.277S172.67,341.814,172.197,341.814z"/>
	<path d="M185.805,342.555h4.248v5.552c-0.688,0.225-1.336,0.382-1.945,0.472c-0.607,0.091-1.229,0.137-1.864,0.137
		c-1.616,0-2.851-0.475-3.703-1.426c-0.852-0.949-1.278-2.312-1.278-4.09c0-1.729,0.495-3.076,1.483-4.043
		c0.989-0.967,2.36-1.45,4.113-1.45c1.099,0,2.158,0.22,3.179,0.659l-0.754,1.816c-0.781-0.391-1.594-0.586-2.439-0.586
		c-0.981,0-1.768,0.33-2.358,0.988c-0.591,0.66-0.886,1.546-0.886,2.659c0,1.162,0.238,2.05,0.714,2.663
		c0.477,0.612,1.168,0.918,2.077,0.918c0.474,0,0.955-0.049,1.443-0.146v-2.233h-2.029V342.555z"/>
	<path d="M196.997,340.226c0.303,0,0.554,0.022,0.754,0.065l-0.168,2.096c-0.181-0.049-0.4-0.074-0.659-0.074
		c-0.713,0-1.269,0.184-1.666,0.55c-0.398,0.366-0.597,0.879-0.597,1.538v4.168h-2.234v-8.189h1.692l0.33,1.377h0.11
		c0.254-0.459,0.597-0.828,1.029-1.109C196.019,340.366,196.489,340.226,196.997,340.226z"/>
	<path d="M204.438,348.568l-0.432-1.113h-0.059c-0.376,0.473-0.763,0.801-1.161,0.984c-0.398,0.184-0.917,0.275-1.557,0.275
		c-0.786,0-1.405-0.225-1.856-0.674c-0.452-0.449-0.678-1.09-0.678-1.92c0-0.869,0.304-1.51,0.912-1.922
		c0.607-0.412,1.524-0.641,2.75-0.686l1.421-0.043v-0.359c0-0.83-0.425-1.245-1.274-1.245c-0.654,0-1.423,0.198-2.307,0.593
		l-0.74-1.508c0.942-0.494,1.987-0.74,3.135-0.74c1.099,0,1.941,0.239,2.527,0.718s0.879,1.206,0.879,2.183v5.457H204.438z
		 M203.779,344.773l-0.864,0.029c-0.649,0.02-1.133,0.137-1.45,0.352s-0.476,0.543-0.476,0.982c0,0.629,0.361,0.944,1.084,0.944
		c0.518,0,0.931-0.149,1.242-0.446c0.31-0.299,0.465-0.693,0.465-1.188V344.773z"/>
	<path d="M212.795,348.715c-0.962,0-1.716-0.35-2.263-1.048h-0.117c0.078,0.684,0.117,1.079,0.117,1.187v3.318h-2.234v-11.793h1.816
		l0.315,1.062h0.103c0.522-0.811,1.296-1.216,2.322-1.216c0.967,0,1.724,0.374,2.271,1.12c0.547,0.748,0.82,1.785,0.82,3.113
		c0,0.874-0.128,1.633-0.385,2.277c-0.256,0.645-0.621,1.136-1.095,1.473S213.435,348.715,212.795,348.715z M212.136,342.013
		c-0.552,0-0.955,0.17-1.208,0.509c-0.254,0.34-0.386,0.9-0.396,1.682v0.241c0,0.879,0.13,1.509,0.392,1.89
		c0.261,0.381,0.675,0.571,1.241,0.571c1.001,0,1.501-0.825,1.501-2.476c0-0.806-0.124-1.41-0.37-1.812
		C213.05,342.215,212.663,342.013,212.136,342.013z"/>
	<path d="M225.349,348.568h-2.234v-4.783c0-1.182-0.439-1.772-1.318-1.772c-0.625,0-1.077,0.212-1.355,0.638
		c-0.278,0.424-0.417,1.113-0.417,2.064v3.854h-2.234v-11.396h2.234v2.321c0,0.181-0.017,0.605-0.051,1.274l-0.051,0.659h0.117
		c0.498-0.801,1.289-1.201,2.373-1.201c0.962,0,1.692,0.259,2.19,0.776s0.747,1.26,0.747,2.227V348.568z"/>
</g>
<rect x="208.342" y="7" fill="#008837" stroke="#000000" stroke-miterlimit="10" width="106.433" height="100"/>
<g>
	<path d="M226.714,60.258l-0.776-2.549h-3.904l-0.776,2.549h-2.446l3.779-10.752h2.776l3.794,10.752H226.714z M225.396,55.805
		c-0.718-2.31-1.122-3.616-1.212-3.918s-0.155-0.542-0.194-0.718c-0.161,0.625-0.623,2.17-1.384,4.636H225.396z"/>
	<path d="M234.829,60.404c-0.962,0-1.716-0.349-2.263-1.047h-0.117c0.078,0.684,0.117,1.079,0.117,1.187v3.318h-2.234V52.069h1.816
		l0.315,1.062h0.103c0.522-0.811,1.296-1.216,2.322-1.216c0.967,0,1.724,0.374,2.271,1.121s0.82,1.785,0.82,3.113
		c0,0.874-0.128,1.633-0.385,2.278c-0.256,0.645-0.621,1.135-1.095,1.472S235.469,60.404,234.829,60.404z M234.17,53.703
		c-0.552,0-0.955,0.17-1.208,0.509s-0.386,0.899-0.396,1.681v0.242c0,0.879,0.13,1.509,0.392,1.89
		c0.261,0.381,0.675,0.571,1.241,0.571c1.001,0,1.501-0.825,1.501-2.476c0-0.806-0.124-1.41-0.37-1.813
		C235.084,53.904,234.697,53.703,234.17,53.703z"/>
	<path d="M244.321,60.404c-0.962,0-1.716-0.349-2.263-1.047h-0.117c0.078,0.684,0.117,1.079,0.117,1.187v3.318h-2.234V52.069h1.816
		l0.315,1.062h0.103c0.522-0.811,1.296-1.216,2.322-1.216c0.967,0,1.724,0.374,2.271,1.121s0.82,1.785,0.82,3.113
		c0,0.874-0.128,1.633-0.385,2.278c-0.256,0.645-0.621,1.135-1.095,1.472S244.961,60.404,244.321,60.404z M243.662,53.703
		c-0.552,0-0.955,0.17-1.208,0.509s-0.386,0.899-0.396,1.681v0.242c0,0.879,0.13,1.509,0.392,1.89
		c0.261,0.381,0.675,0.571,1.241,0.571c1.001,0,1.501-0.825,1.501-2.476c0-0.806-0.124-1.41-0.37-1.813
		C244.576,53.904,244.189,53.703,243.662,53.703z"/>
	<path d="M251.55,60.258h-2.234V48.861h2.234V60.258z"/>
	<path d="M253.799,49.953c0-0.728,0.405-1.091,1.216-1.091s1.216,0.364,1.216,1.091c0,0.347-0.102,0.617-0.304,0.809
		c-0.203,0.193-0.506,0.29-0.912,0.29C254.204,51.051,253.799,50.685,253.799,49.953z M256.128,60.258h-2.234v-8.188h2.234V60.258z"
		/>
	<path d="M261.797,60.404c-2.549,0-3.823-1.399-3.823-4.197c0-1.392,0.347-2.455,1.04-3.19c0.693-0.734,1.687-1.102,2.981-1.102
		c0.947,0,1.797,0.186,2.549,0.557l-0.659,1.729c-0.352-0.142-0.679-0.257-0.981-0.348c-0.303-0.09-0.605-0.135-0.908-0.135
		c-1.162,0-1.743,0.825-1.743,2.476c0,1.602,0.581,2.402,1.743,2.402c0.43,0,0.828-0.057,1.194-0.172
		c0.366-0.114,0.732-0.294,1.099-0.538v1.912c-0.361,0.229-0.727,0.388-1.095,0.476C262.823,60.36,262.358,60.404,261.797,60.404z"
		/>
	<path d="M271.384,60.258l-0.432-1.113h-0.059c-0.376,0.474-0.763,0.802-1.161,0.985c-0.398,0.183-0.917,0.274-1.557,0.274
		c-0.786,0-1.405-0.225-1.856-0.674c-0.452-0.449-0.678-1.089-0.678-1.919c0-0.869,0.304-1.51,0.912-1.923
		c0.607-0.412,1.524-0.641,2.75-0.685l1.421-0.044v-0.359c0-0.83-0.425-1.245-1.274-1.245c-0.654,0-1.423,0.198-2.307,0.593
		l-0.74-1.509c0.942-0.493,1.987-0.74,3.135-0.74c1.099,0,1.941,0.239,2.527,0.718s0.879,1.206,0.879,2.183v5.457H271.384z
		 M270.725,56.464l-0.864,0.029c-0.649,0.02-1.133,0.137-1.45,0.352s-0.476,0.542-0.476,0.981c0,0.63,0.361,0.945,1.084,0.945
		c0.518,0,0.931-0.149,1.242-0.447c0.31-0.298,0.465-0.693,0.465-1.187V56.464z"/>
	<path d="M278.694,58.625c0.391,0,0.859-0.085,1.406-0.256v1.663c-0.557,0.249-1.24,0.374-2.051,0.374
		c-0.894,0-1.544-0.226-1.952-0.678c-0.408-0.451-0.612-1.129-0.612-2.032v-3.948h-1.069v-0.945l1.23-0.747l0.645-1.729h1.428v1.743
		h2.292v1.677h-2.292v3.948c0,0.317,0.089,0.552,0.268,0.703C278.165,58.549,278.401,58.625,278.694,58.625z"/>
	<path d="M281.66,49.953c0-0.728,0.405-1.091,1.216-1.091s1.216,0.364,1.216,1.091c0,0.347-0.102,0.617-0.304,0.809
		c-0.203,0.193-0.506,0.29-0.912,0.29C282.065,51.051,281.66,50.685,281.66,49.953z M283.989,60.258h-2.234v-8.188h2.234V60.258z"/>
	<path d="M293.774,56.149c0,1.333-0.352,2.375-1.055,3.127s-1.682,1.128-2.937,1.128c-0.786,0-1.479-0.172-2.08-0.517
		c-0.601-0.344-1.062-0.838-1.384-1.483s-0.483-1.396-0.483-2.256c0-1.338,0.349-2.378,1.047-3.12s1.68-1.113,2.944-1.113
		c0.786,0,1.479,0.171,2.08,0.513s1.062,0.833,1.384,1.472S293.774,55.29,293.774,56.149z M288.113,56.149
		c0,0.811,0.133,1.423,0.399,1.838s0.7,0.623,1.3,0.623c0.596,0,1.024-0.206,1.286-0.619c0.261-0.413,0.392-1.027,0.392-1.842
		c0-0.811-0.132-1.418-0.396-1.824s-0.696-0.608-1.296-0.608c-0.596,0-1.025,0.202-1.289,0.604
		C288.245,54.725,288.113,55.333,288.113,56.149z"/>
	<path d="M303.179,60.258h-2.234v-4.783c0-0.591-0.105-1.034-0.315-1.33c-0.21-0.295-0.544-0.443-1.003-0.443
		c-0.625,0-1.077,0.208-1.355,0.626c-0.278,0.417-0.417,1.109-0.417,2.076v3.853h-2.234v-8.188h1.707l0.3,1.047h0.125
		c0.249-0.396,0.592-0.694,1.029-0.897s0.934-0.304,1.491-0.304c0.952,0,1.675,0.258,2.168,0.773s0.74,1.258,0.74,2.23V60.258z"/>
</g>
<line fill="none" stroke="#000000" stroke-width="2" stroke-miterlimit="10" x1="115.687" y1="233.807" x2="115.687" y2="199.596"/>
<rect x="394.468" y="289.752" fill="#2E58A6" width="35.362" height="33.227"/>
<rect x="441.138" y="212.832" fill="#2E58A6" width="35.362" height="33.227"/>
<rect x="455.613" y="273.14" fill="#2E58A6" width="35.362" height="33.225"/>
<rect x="335.988" y="275.248" fill="#2E58A6" width="35.362" height="33.225"/>
<rect x="360.973" y="217.193" fill="#2E58A6" width="35.362" height="33.227"/>
<rect x="470.628" y="317.193" fill="#2E58A6" width="35.362" height="33.227"/>
<line fill="none" stroke="#000000" stroke-width="2" stroke-miterlimit="10" x1="412.148" y1="199.467" x2="412.148" y2="219.914"/>
<g>
	<path d="M302.53,263.111c0,1.763-0.501,3.113-1.505,4.051c-1.003,0.938-2.452,1.406-4.347,1.406h-3.032v-10.709h3.362
		c1.748,0,3.105,0.462,4.072,1.385S302.53,261.456,302.53,263.111z M300.172,263.17c0-2.3-1.016-3.449-3.047-3.449h-1.208v6.973
		h0.974C299.078,266.693,300.172,265.519,300.172,263.17z"/>
	<path d="M308.28,268.715c-1.318,0-2.349-0.364-3.091-1.092s-1.113-1.758-1.113-3.091c0-1.372,0.343-2.433,1.029-3.183
		c0.686-0.749,1.634-1.124,2.845-1.124c1.157,0,2.058,0.329,2.703,0.989c0.645,0.658,0.967,1.569,0.967,2.731v1.084h-5.281
		c0.024,0.635,0.212,1.13,0.564,1.487c0.352,0.355,0.845,0.534,1.479,0.534c0.493,0,0.959-0.052,1.399-0.153
		c0.439-0.104,0.898-0.267,1.377-0.491v1.729c-0.391,0.195-0.808,0.341-1.252,0.437C309.461,268.666,308.919,268.715,308.28,268.715
		z M307.965,261.814c-0.474,0-0.845,0.15-1.113,0.451s-0.422,0.727-0.461,1.277h3.135c-0.01-0.551-0.154-0.977-0.432-1.277
		S308.438,261.814,307.965,261.814z"/>
	<path d="M316.761,268.715c-2.549,0-3.823-1.399-3.823-4.197c0-1.392,0.347-2.455,1.04-3.189s1.687-1.103,2.981-1.103
		c0.947,0,1.797,0.186,2.549,0.557l-0.659,1.729c-0.352-0.142-0.679-0.257-0.981-0.349c-0.303-0.09-0.605-0.135-0.908-0.135
		c-1.162,0-1.743,0.825-1.743,2.476c0,1.602,0.581,2.402,1.743,2.402c0.43,0,0.828-0.058,1.194-0.173
		c0.366-0.113,0.732-0.293,1.099-0.537v1.911c-0.361,0.229-0.727,0.388-1.095,0.476C317.788,268.67,317.323,268.715,316.761,268.715
		z"/>
	<path d="M324.854,268.715c-1.318,0-2.349-0.364-3.091-1.092s-1.113-1.758-1.113-3.091c0-1.372,0.343-2.433,1.029-3.183
		c0.686-0.749,1.634-1.124,2.845-1.124c1.157,0,2.058,0.329,2.703,0.989c0.645,0.658,0.967,1.569,0.967,2.731v1.084h-5.281
		c0.024,0.635,0.212,1.13,0.564,1.487c0.352,0.355,0.845,0.534,1.479,0.534c0.493,0,0.959-0.052,1.399-0.153
		c0.439-0.104,0.898-0.267,1.377-0.491v1.729c-0.391,0.195-0.808,0.341-1.252,0.437
		C326.036,268.666,325.494,268.715,324.854,268.715z M324.54,261.814c-0.474,0-0.845,0.15-1.113,0.451s-0.422,0.727-0.461,1.277
		h3.135c-0.01-0.551-0.154-0.977-0.432-1.277S325.013,261.814,324.54,261.814z"/>
	<path d="M337.569,268.568h-2.234v-4.783c0-0.591-0.105-1.033-0.315-1.33c-0.21-0.295-0.544-0.442-1.003-0.442
		c-0.625,0-1.077,0.208-1.355,0.626s-0.417,1.109-0.417,2.076v3.854h-2.234v-8.189h1.707l0.3,1.048h0.125
		c0.249-0.396,0.592-0.694,1.029-0.897c0.437-0.202,0.934-0.304,1.491-0.304c0.952,0,1.675,0.258,2.168,0.772
		c0.493,0.516,0.74,1.259,0.74,2.23V268.568z"/>
	<path d="M343.319,266.935c0.391,0,0.859-0.085,1.406-0.257v1.663c-0.557,0.249-1.24,0.374-2.051,0.374
		c-0.894,0-1.544-0.227-1.952-0.678c-0.408-0.451-0.612-1.129-0.612-2.033v-3.947h-1.069v-0.945l1.23-0.746l0.645-1.729h1.428v1.742
		h2.292v1.678h-2.292v3.947c0,0.318,0.089,0.553,0.268,0.703C342.79,266.859,343.026,266.935,343.319,266.935z"/>
	<path d="M350.951,260.226c0.303,0,0.554,0.022,0.754,0.065l-0.168,2.096c-0.181-0.049-0.4-0.074-0.659-0.074
		c-0.713,0-1.269,0.184-1.666,0.55c-0.398,0.366-0.597,0.879-0.597,1.538v4.168h-2.234v-8.189h1.692l0.33,1.377h0.11
		c0.254-0.459,0.597-0.828,1.029-1.109C349.973,260.366,350.443,260.226,350.951,260.226z"/>
	<path d="M358.392,268.568l-0.432-1.113h-0.059c-0.376,0.473-0.763,0.801-1.161,0.984c-0.398,0.184-0.917,0.275-1.557,0.275
		c-0.786,0-1.405-0.225-1.856-0.674c-0.452-0.449-0.678-1.09-0.678-1.92c0-0.869,0.304-1.51,0.912-1.922
		c0.607-0.412,1.524-0.641,2.75-0.686l1.421-0.043v-0.359c0-0.83-0.425-1.245-1.274-1.245c-0.654,0-1.423,0.198-2.307,0.593
		l-0.74-1.508c0.942-0.494,1.987-0.74,3.135-0.74c1.099,0,1.941,0.239,2.527,0.718s0.879,1.206,0.879,2.183v5.457H358.392z
		 M357.733,264.773l-0.864,0.029c-0.649,0.02-1.133,0.137-1.45,0.352s-0.476,0.543-0.476,0.982c0,0.629,0.361,0.944,1.084,0.944
		c0.518,0,0.931-0.149,1.242-0.446c0.31-0.299,0.465-0.693,0.465-1.188V264.773z"/>
	<path d="M364.486,268.568h-2.234v-11.396h2.234V268.568z"/>
	<path d="M366.734,258.263c0-0.728,0.405-1.091,1.216-1.091s1.216,0.363,1.216,1.091c0,0.347-0.102,0.616-0.304,0.81
		s-0.506,0.289-0.912,0.289C367.14,259.361,366.734,258.995,366.734,258.263z M369.063,268.568h-2.234v-8.189h2.234V268.568z"/>
	<path d="M377.105,268.568h-6.467v-1.318l3.794-5.164h-3.567v-1.707h6.108v1.451l-3.691,5.031h3.823V268.568z"/>
	<path d="M382.43,268.715c-1.318,0-2.349-0.364-3.091-1.092s-1.113-1.758-1.113-3.091c0-1.372,0.343-2.433,1.029-3.183
		c0.686-0.749,1.634-1.124,2.845-1.124c1.157,0,2.058,0.329,2.703,0.989c0.645,0.658,0.967,1.569,0.967,2.731v1.084h-5.281
		c0.024,0.635,0.212,1.13,0.564,1.487c0.352,0.355,0.845,0.534,1.479,0.534c0.493,0,0.959-0.052,1.399-0.153
		c0.439-0.104,0.898-0.267,1.377-0.491v1.729c-0.391,0.195-0.808,0.341-1.252,0.437C383.612,268.666,383.07,268.715,382.43,268.715z
		 M382.115,261.814c-0.474,0-0.845,0.15-1.113,0.451s-0.422,0.727-0.461,1.277h3.135c-0.01-0.551-0.154-0.977-0.432-1.277
		S382.589,261.814,382.115,261.814z"/>
	<path d="M390.179,268.715c-0.962,0-1.718-0.374-2.267-1.121c-0.55-0.747-0.824-1.782-0.824-3.105c0-1.343,0.279-2.389,0.839-3.139
		c0.559-0.749,1.329-1.124,2.311-1.124c1.03,0,1.816,0.4,2.358,1.201h0.073c-0.112-0.61-0.168-1.155-0.168-1.634v-2.621h2.241
		v11.396h-1.714l-0.432-1.062h-0.095C391.993,268.312,391.219,268.715,390.179,268.715z M390.963,266.935
		c0.571,0,0.99-0.166,1.256-0.498c0.266-0.332,0.411-0.896,0.436-1.692v-0.241c0-0.879-0.136-1.509-0.406-1.89
		c-0.271-0.381-0.712-0.571-1.322-0.571c-0.498,0-0.885,0.212-1.161,0.634s-0.414,1.036-0.414,1.842s0.139,1.41,0.417,1.812
		S390.445,266.935,390.963,266.935z"/>
	<path d="M409.764,268.568h-2.578l-2.805-4.512l-0.959,0.688v3.824h-2.271v-10.709h2.271v4.9l0.893-1.26l2.9-3.641h2.52L406,262.599
		L409.764,268.568z"/>
	<path d="M418.494,268.568h-2.233v-4.783c0-0.591-0.104-1.033-0.315-1.33c-0.209-0.295-0.544-0.442-1.003-0.442
		c-0.625,0-1.077,0.208-1.354,0.626c-0.279,0.418-0.418,1.109-0.418,2.076v3.854h-2.234v-8.189h1.707l0.301,1.048h0.124
		c0.249-0.396,0.592-0.694,1.028-0.897c0.438-0.202,0.935-0.304,1.491-0.304c0.952,0,1.675,0.258,2.168,0.772
		c0.493,0.516,0.739,1.259,0.739,2.23V268.568z"/>
	<path d="M428.236,264.459c0,1.333-0.352,2.375-1.055,3.127s-1.683,1.129-2.938,1.129c-0.786,0-1.479-0.172-2.08-0.518
		c-0.601-0.344-1.062-0.838-1.385-1.482s-0.482-1.396-0.482-2.256c0-1.338,0.349-2.378,1.047-3.12s1.68-1.113,2.944-1.113
		c0.786,0,1.479,0.171,2.08,0.513s1.062,0.832,1.384,1.473C428.074,262.85,428.236,263.6,428.236,264.459z M422.574,264.459
		c0,0.811,0.133,1.424,0.398,1.838c0.267,0.416,0.7,0.623,1.301,0.623c0.596,0,1.023-0.206,1.285-0.619
		c0.262-0.412,0.393-1.026,0.393-1.842c0-0.811-0.133-1.418-0.396-1.824c-0.264-0.404-0.695-0.607-1.296-0.607
		c-0.596,0-1.025,0.201-1.289,0.604C422.706,263.035,422.574,263.644,422.574,264.459z"/>
	<path d="M436.812,268.568l-0.63-2.864l-0.85-3.618h-0.052l-1.494,6.482h-2.402l-2.328-8.189h2.227l0.944,3.626
		c0.151,0.649,0.306,1.546,0.462,2.688h0.043c0.02-0.371,0.105-0.96,0.257-1.766l0.117-0.623l1.011-3.926h2.461l0.959,3.926
		c0.02,0.107,0.051,0.267,0.092,0.477s0.082,0.434,0.121,0.67c0.039,0.237,0.074,0.469,0.105,0.695
		c0.032,0.229,0.051,0.41,0.056,0.547h0.044c0.044-0.352,0.122-0.834,0.234-1.447c0.112-0.612,0.193-1.026,0.242-1.241l0.98-3.626
		h2.19l-2.358,8.189H436.812z"/>
	<path d="M445.154,268.568h-2.233v-11.396h2.233V268.568z"/>
	<path d="M451.205,268.715c-1.318,0-2.35-0.364-3.092-1.092S447,265.865,447,264.532c0-1.372,0.344-2.433,1.029-3.183
		c0.686-0.749,1.635-1.124,2.846-1.124c1.157,0,2.059,0.329,2.703,0.989c0.645,0.658,0.967,1.569,0.967,2.731v1.084h-5.281
		c0.024,0.635,0.213,1.13,0.564,1.487c0.352,0.355,0.844,0.534,1.479,0.534c0.494,0,0.96-0.052,1.399-0.153
		c0.439-0.104,0.898-0.267,1.377-0.491v1.729c-0.391,0.195-0.808,0.341-1.253,0.437
		C452.387,268.666,451.844,268.715,451.205,268.715z M450.89,261.814c-0.474,0-0.845,0.15-1.113,0.451s-0.423,0.727-0.462,1.277
		h3.135c-0.01-0.551-0.153-0.977-0.432-1.277S451.363,261.814,450.89,261.814z"/>
	<path d="M458.953,268.715c-0.961,0-1.717-0.374-2.266-1.121c-0.551-0.747-0.824-1.782-0.824-3.105c0-1.343,0.279-2.389,0.838-3.139
		c0.559-0.749,1.33-1.124,2.311-1.124c1.031,0,1.816,0.4,2.359,1.201h0.072c-0.111-0.61-0.168-1.155-0.168-1.634v-2.621h2.241
		v11.396h-1.714l-0.432-1.062h-0.096C460.768,268.312,459.994,268.715,458.953,268.715z M459.737,266.935
		c0.571,0,0.989-0.166,1.257-0.498c0.266-0.332,0.41-0.896,0.436-1.692v-0.241c0-0.879-0.137-1.509-0.406-1.89
		c-0.271-0.381-0.713-0.571-1.322-0.571c-0.498,0-0.886,0.212-1.162,0.634c-0.275,0.422-0.413,1.036-0.413,1.842
		s0.14,1.41,0.417,1.812C458.822,266.732,459.22,266.935,459.737,266.935z"/>
	<path d="M472.979,260.379v1.136l-1.282,0.329c0.234,0.367,0.352,0.777,0.352,1.23c0,0.879-0.307,1.564-0.918,2.055
		c-0.613,0.49-1.465,0.736-2.553,0.736l-0.403-0.021l-0.329-0.037c-0.23,0.176-0.345,0.371-0.345,0.586
		c0,0.322,0.41,0.483,1.23,0.483h1.392c0.898,0,1.583,0.192,2.055,0.579c0.471,0.385,0.707,0.951,0.707,1.699
		c0,0.957-0.4,1.699-1.197,2.227c-0.799,0.527-1.945,0.791-3.439,0.791c-1.143,0-2.016-0.199-2.619-0.598
		c-0.603-0.398-0.904-0.955-0.904-1.674c0-0.492,0.154-0.905,0.462-1.237s0.759-0.569,1.354-0.71c-0.229-0.098-0.43-0.258-0.6-0.48
		c-0.172-0.222-0.257-0.457-0.257-0.707c0-0.312,0.091-0.572,0.271-0.779c0.182-0.207,0.442-0.412,0.784-0.611
		c-0.43-0.186-0.771-0.484-1.022-0.895c-0.251-0.41-0.377-0.893-0.377-1.449c0-0.895,0.291-1.585,0.872-2.073
		s1.411-0.732,2.49-0.732c0.229,0,0.501,0.021,0.817,0.062c0.314,0.043,0.516,0.072,0.604,0.092H472.979z M466.658,269.725
		c0,0.309,0.148,0.55,0.443,0.726s0.709,0.264,1.242,0.264c0.801,0,1.428-0.11,1.882-0.329c0.454-0.221,0.681-0.521,0.681-0.901
		c0-0.308-0.134-0.521-0.402-0.638s-0.684-0.176-1.245-0.176h-1.157c-0.41,0-0.754,0.097-1.029,0.289
		C466.797,269.152,466.658,269.408,466.658,269.725z M467.472,263.061c0,0.443,0.101,0.795,0.304,1.055
		c0.203,0.258,0.512,0.388,0.927,0.388c0.42,0,0.728-0.13,0.923-0.388c0.195-0.26,0.293-0.611,0.293-1.055
		c0-0.986-0.405-1.48-1.216-1.48C467.882,261.58,467.472,262.074,467.472,263.061z"/>
	<path d="M478.033,268.715c-1.318,0-2.349-0.364-3.091-1.092s-1.113-1.758-1.113-3.091c0-1.372,0.343-2.433,1.029-3.183
		c0.686-0.749,1.634-1.124,2.845-1.124c1.158,0,2.059,0.329,2.703,0.989c0.645,0.658,0.967,1.569,0.967,2.731v1.084h-5.281
		c0.025,0.635,0.213,1.13,0.564,1.487c0.352,0.355,0.845,0.534,1.479,0.534c0.493,0,0.96-0.052,1.399-0.153
		c0.439-0.104,0.898-0.267,1.377-0.491v1.729c-0.391,0.195-0.809,0.341-1.253,0.437
		C479.215,268.666,478.673,268.715,478.033,268.715z M477.719,261.814c-0.475,0-0.846,0.15-1.113,0.451
		c-0.27,0.301-0.423,0.727-0.462,1.277h3.135c-0.01-0.551-0.153-0.977-0.433-1.277C478.568,261.965,478.191,261.814,477.719,261.814
		z"/>
	<path d="M491.326,262.555h4.248v5.552c-0.688,0.225-1.336,0.382-1.944,0.472c-0.607,0.091-1.229,0.137-1.864,0.137
		c-1.615,0-2.85-0.475-3.702-1.426c-0.853-0.949-1.278-2.312-1.278-4.09c0-1.729,0.495-3.076,1.483-4.043
		c0.989-0.967,2.36-1.45,4.112-1.45c1.1,0,2.158,0.22,3.18,0.659l-0.755,1.816c-0.781-0.391-1.595-0.586-2.438-0.586
		c-0.982,0-1.768,0.33-2.359,0.988c-0.59,0.66-0.886,1.546-0.886,2.659c0,1.162,0.238,2.05,0.714,2.663
		c0.477,0.612,1.168,0.918,2.076,0.918c0.475,0,0.955-0.049,1.443-0.146v-2.233h-2.029V262.555z"/>
	<path d="M502.518,260.226c0.303,0,0.555,0.022,0.755,0.065l-0.169,2.096c-0.18-0.049-0.4-0.074-0.658-0.074
		c-0.713,0-1.27,0.184-1.666,0.55c-0.398,0.366-0.598,0.879-0.598,1.538v4.168h-2.234v-8.189h1.692l0.329,1.377h0.11
		c0.254-0.459,0.597-0.828,1.028-1.109C501.541,260.366,502.01,260.226,502.518,260.226z"/>
	<path d="M509.959,268.568l-0.432-1.113h-0.059c-0.376,0.473-0.764,0.801-1.16,0.984c-0.398,0.184-0.918,0.275-1.557,0.275
		c-0.787,0-1.406-0.225-1.857-0.674s-0.678-1.09-0.678-1.92c0-0.869,0.305-1.51,0.912-1.922s1.525-0.641,2.75-0.686l1.422-0.043
		v-0.359c0-0.83-0.426-1.245-1.275-1.245c-0.654,0-1.423,0.198-2.307,0.593l-0.74-1.508c0.943-0.494,1.988-0.74,3.135-0.74
		c1.1,0,1.941,0.239,2.527,0.718s0.879,1.206,0.879,2.183v5.457H509.959z M509.301,264.773l-0.865,0.029
		c-0.648,0.02-1.133,0.137-1.449,0.352c-0.318,0.215-0.477,0.543-0.477,0.982c0,0.629,0.361,0.944,1.084,0.944
		c0.518,0,0.932-0.149,1.242-0.446c0.309-0.299,0.465-0.693,0.465-1.188V264.773z"/>
	<path d="M518.316,268.715c-0.962,0-1.717-0.35-2.264-1.048h-0.117c0.078,0.684,0.117,1.079,0.117,1.187v3.318h-2.233v-11.793h1.816
		l0.315,1.062h0.102c0.523-0.811,1.297-1.216,2.322-1.216c0.967,0,1.724,0.374,2.271,1.12c0.547,0.748,0.82,1.785,0.82,3.113
		c0,0.874-0.128,1.633-0.385,2.277c-0.256,0.645-0.621,1.136-1.095,1.473S518.956,268.715,518.316,268.715z M517.657,262.013
		c-0.552,0-0.954,0.17-1.208,0.509c-0.254,0.34-0.387,0.9-0.396,1.682v0.241c0,0.879,0.131,1.509,0.393,1.89
		c0.261,0.381,0.675,0.571,1.241,0.571c1.001,0,1.501-0.825,1.501-2.476c0-0.806-0.123-1.41-0.369-1.812
		C518.571,262.215,518.185,262.013,517.657,262.013z"/>
	<path d="M530.87,268.568h-2.233v-4.783c0-1.182-0.439-1.772-1.318-1.772c-0.625,0-1.077,0.212-1.355,0.638
		c-0.278,0.424-0.418,1.113-0.418,2.064v3.854h-2.233v-11.396h2.233v2.321c0,0.181-0.017,0.605-0.051,1.274l-0.051,0.659h0.117
		c0.498-0.801,1.289-1.201,2.373-1.201c0.961,0,1.691,0.259,2.189,0.776s0.747,1.26,0.747,2.227V268.568z"/>
</g>
<g>
	<g>
		<line fill="none" stroke="#000000" stroke-miterlimit="10" x1="261.559" y1="107" x2="267.216" y2="108.998"/>
		
			<line fill="none" stroke="#000000" stroke-miterlimit="10" stroke-dasharray="11.5534,11.5534" x1="278.11" y1="112.844" x2="403.396" y2="157.079"/>
		<line fill="none" stroke="#000000" stroke-miterlimit="10" x1="408.842" y1="159.002" x2="414.5" y2="161"/>
	</g>
</g>
<g>
	<path fill="#333333" d="M190.678,145.114l-0.108,0.013h-0.102c-1.083,0-1.928-0.316-2.533-0.949
		c-0.605-0.632-0.908-1.52-0.908-2.663c0-1.117,0.203-2.137,0.609-3.06s0.964-1.633,1.673-2.133c0.708-0.5,1.507-0.749,2.396-0.749
		c1.033,0,1.845,0.326,2.438,0.978s0.889,1.549,0.889,2.691c0,1.409-0.294,2.628-0.882,3.656s-1.382,1.708-2.38,2.038l1.739,2.272
		h-1.39L190.678,145.114z M191.624,136.538c-0.665,0-1.259,0.214-1.784,0.641s-0.932,1.022-1.222,1.784
		c-0.29,0.762-0.435,1.604-0.435,2.526c0,0.842,0.208,1.499,0.622,1.971c0.415,0.472,0.978,0.708,1.688,0.708
		c0.668,0,1.259-0.211,1.771-0.635s0.909-1.017,1.19-1.781c0.282-0.764,0.422-1.609,0.422-2.536c0-0.842-0.199-1.499-0.597-1.971
		C192.882,136.774,192.33,136.538,191.624,136.538z"/>
	<path fill="#333333" d="M198.301,138.042l-0.952,4.412c-0.076,0.376-0.114,0.671-0.114,0.882c0,0.605,0.311,0.908,0.933,0.908
		c0.373,0,0.738-0.127,1.098-0.381s0.677-0.618,0.952-1.092s0.484-1.045,0.628-1.714l0.635-3.015h1.054L201.069,145h-0.882
		l0.14-1.289h-0.076c-0.415,0.529-0.811,0.897-1.187,1.104s-0.766,0.311-1.168,0.311c-0.542,0-0.967-0.147-1.276-0.441
		c-0.309-0.294-0.463-0.714-0.463-1.26c0-0.262,0.046-0.626,0.14-1.092l0.927-4.291H198.301z"/>
	<path fill="#333333" d="M206.064,145.126c-0.779,0-1.39-0.23-1.834-0.692s-0.667-1.1-0.667-1.917c0-0.795,0.158-1.558,0.473-2.289
		c0.315-0.729,0.733-1.298,1.254-1.704s1.094-0.609,1.72-0.609c0.647,0,1.134,0.141,1.46,0.422c0.326,0.282,0.489,0.674,0.489,1.178
		c0,0.762-0.351,1.359-1.054,1.793c-0.703,0.434-1.708,0.651-3.015,0.651h-0.209l-0.025,0.508c0,0.554,0.13,0.987,0.391,1.298
		c0.26,0.311,0.663,0.466,1.209,0.466c0.267,0,0.541-0.038,0.822-0.114c0.281-0.076,0.631-0.216,1.05-0.419v0.927
		c-0.398,0.186-0.749,0.316-1.054,0.39C206.769,145.089,206.433,145.126,206.064,145.126z M206.947,138.823
		c-0.436,0-0.845,0.199-1.228,0.597c-0.383,0.398-0.676,0.95-0.879,1.657h0.076c0.965,0,1.705-0.126,2.218-0.378
		c0.515-0.251,0.771-0.617,0.771-1.095c0-0.224-0.077-0.411-0.231-0.559C207.519,138.897,207.277,138.823,206.947,138.823z"/>
	<path fill="#333333" d="M214.126,137.916c0.292,0,0.546,0.03,0.762,0.089l-0.229,0.952c-0.224-0.055-0.446-0.083-0.667-0.083
		c-0.385,0-0.746,0.127-1.083,0.381c-0.336,0.254-0.63,0.606-0.882,1.057c-0.252,0.45-0.437,0.951-0.556,1.501L210.793,145h-1.066
		l1.485-6.957h0.882l-0.14,1.289h0.063c0.305-0.402,0.557-0.691,0.755-0.867c0.199-0.175,0.407-0.311,0.625-0.406
		C213.617,137.963,213.859,137.916,214.126,137.916z"/>
	<path fill="#333333" d="M215.123,138.042h1.066l0.47,3.459c0.042,0.292,0.083,0.723,0.124,1.292c0.04,0.569,0.06,1.027,0.06,1.375
		h0.038c0.148-0.368,0.332-0.792,0.552-1.27s0.383-0.808,0.489-0.99l2.063-3.866h1.13l-4.418,8.138
		c-0.394,0.728-0.783,1.233-1.168,1.517s-0.849,0.425-1.39,0.425c-0.305,0-0.601-0.044-0.889-0.133v-0.857
		c0.267,0.076,0.544,0.114,0.832,0.114c0.347,0,0.645-0.107,0.892-0.32c0.248-0.214,0.488-0.53,0.721-0.949l0.482-0.863
		L215.123,138.042z"/>
	<path fill="#333333" d="M227.938,137.916c0.389,0,0.736,0.104,1.041,0.314c0.305,0.209,0.542,0.511,0.711,0.904h0.07l0.425-1.092
		h0.806L229.513,145h-0.844l0.165-1.327h-0.051c-0.757,0.969-1.555,1.454-2.393,1.454c-0.588,0-1.049-0.209-1.384-0.628
		s-0.501-0.992-0.501-1.72c0-0.88,0.15-1.697,0.451-2.45s0.715-1.344,1.244-1.771S227.308,137.916,227.938,137.916z
		 M226.732,144.244c0.411,0,0.819-0.196,1.225-0.587c0.406-0.391,0.736-0.901,0.99-1.529c0.254-0.629,0.381-1.258,0.381-1.889
		c0-0.436-0.119-0.783-0.355-1.041s-0.548-0.387-0.933-0.387c-0.44,0-0.85,0.182-1.228,0.546c-0.379,0.364-0.676,0.857-0.892,1.479
		s-0.324,1.278-0.324,1.968c0,0.482,0.1,0.843,0.298,1.082C226.093,144.125,226.373,144.244,226.732,144.244z"/>
	<path fill="#333333" d="M235.892,143.025c0,0.66-0.234,1.175-0.702,1.545c-0.467,0.371-1.126,0.556-1.977,0.556
		c-0.715,0-1.36-0.146-1.936-0.438v-1.003c0.296,0.178,0.616,0.315,0.958,0.413s0.66,0.146,0.952,0.146
		c0.533,0,0.935-0.106,1.206-0.317s0.406-0.482,0.406-0.812c0-0.241-0.074-0.444-0.222-0.609s-0.468-0.392-0.958-0.679
		c-0.55-0.309-0.939-0.611-1.168-0.908s-0.343-0.647-0.343-1.054c0-0.584,0.214-1.055,0.641-1.413
		c0.427-0.357,0.99-0.536,1.688-0.536c0.724,0,1.422,0.157,2.095,0.47l-0.343,0.87l-0.355-0.159
		c-0.427-0.182-0.893-0.273-1.396-0.273c-0.394,0-0.703,0.092-0.927,0.276c-0.224,0.185-0.336,0.422-0.336,0.714
		c0,0.237,0.075,0.44,0.225,0.609c0.15,0.169,0.46,0.387,0.93,0.654c0.453,0.254,0.778,0.472,0.974,0.654
		c0.197,0.182,0.344,0.377,0.441,0.587C235.843,142.527,235.892,142.763,235.892,143.025z"/>
	<path fill="#333333" d="M244.227,137.916c0.389,0,0.736,0.104,1.041,0.314c0.305,0.209,0.542,0.511,0.711,0.904h0.07l0.425-1.092
		h0.806L245.801,145h-0.844l0.165-1.327h-0.051c-0.757,0.969-1.555,1.454-2.393,1.454c-0.588,0-1.049-0.209-1.384-0.628
		s-0.501-0.992-0.501-1.72c0-0.88,0.15-1.697,0.451-2.45s0.715-1.344,1.244-1.771S243.596,137.916,244.227,137.916z
		 M243.021,144.244c0.411,0,0.819-0.196,1.225-0.587c0.406-0.391,0.736-0.901,0.99-1.529c0.254-0.629,0.381-1.258,0.381-1.889
		c0-0.436-0.119-0.783-0.355-1.041s-0.548-0.387-0.933-0.387c-0.44,0-0.85,0.182-1.228,0.546c-0.379,0.364-0.676,0.857-0.892,1.479
		s-0.324,1.278-0.324,1.968c0,0.482,0.1,0.843,0.298,1.082C242.381,144.125,242.661,144.244,243.021,144.244z"/>
	<path fill="#333333" d="M250.974,145.126c-0.411,0-0.771-0.108-1.083-0.324c-0.311-0.216-0.544-0.51-0.701-0.882h-0.063
		L248.683,145h-0.793l2.095-9.877h1.066c-0.216,1.024-0.382,1.808-0.499,2.352c-0.116,0.544-0.276,1.18-0.479,1.908h0.057
		c0.394-0.5,0.782-0.867,1.165-1.101c0.383-0.235,0.777-0.353,1.184-0.353c0.597,0,1.062,0.209,1.396,0.628s0.501,0.995,0.501,1.727
		c0,0.884-0.145,1.702-0.435,2.454c-0.29,0.751-0.694,1.337-1.212,1.758C252.211,144.916,251.626,145.126,250.974,145.126z
		 M252.155,138.811c-0.406,0-0.82,0.201-1.241,0.603c-0.421,0.402-0.756,0.908-1.003,1.517c-0.248,0.609-0.372,1.233-0.372,1.873
		c0,0.465,0.118,0.822,0.352,1.069c0.235,0.248,0.575,0.372,1.019,0.372c0.419,0,0.809-0.171,1.171-0.514
		c0.361-0.343,0.652-0.831,0.873-1.463c0.22-0.633,0.33-1.305,0.33-2.016C253.285,139.291,252.908,138.811,252.155,138.811z"/>
	<path fill="#333333" d="M259.683,143.025c0,0.66-0.234,1.175-0.702,1.545c-0.467,0.371-1.126,0.556-1.977,0.556
		c-0.715,0-1.36-0.146-1.936-0.438v-1.003c0.296,0.178,0.616,0.315,0.958,0.413s0.66,0.146,0.952,0.146
		c0.533,0,0.935-0.106,1.206-0.317s0.406-0.482,0.406-0.812c0-0.241-0.074-0.444-0.222-0.609s-0.468-0.392-0.958-0.679
		c-0.55-0.309-0.939-0.611-1.168-0.908s-0.343-0.647-0.343-1.054c0-0.584,0.214-1.055,0.641-1.413
		c0.427-0.357,0.99-0.536,1.688-0.536c0.724,0,1.422,0.157,2.095,0.47l-0.343,0.87l-0.355-0.159
		c-0.427-0.182-0.893-0.273-1.396-0.273c-0.394,0-0.703,0.092-0.927,0.276c-0.224,0.185-0.336,0.422-0.336,0.714
		c0,0.237,0.075,0.44,0.225,0.609c0.15,0.169,0.46,0.387,0.93,0.654c0.453,0.254,0.778,0.472,0.974,0.654
		c0.197,0.182,0.344,0.377,0.441,0.587C259.634,142.527,259.683,142.763,259.683,143.025z"/>
	<path fill="#333333" d="M263.092,144.257c0.233,0,0.538-0.055,0.914-0.165v0.819c-0.144,0.059-0.322,0.11-0.533,0.152
		s-0.381,0.063-0.508,0.063c-0.529,0-0.934-0.126-1.215-0.378c-0.282-0.251-0.422-0.627-0.422-1.126
		c0-0.279,0.038-0.597,0.114-0.952l0.806-3.821h-1.092l0.089-0.463l1.174-0.495l0.793-1.447h0.622l-0.349,1.6h1.739l-0.165,0.806
		h-1.733l-0.819,3.834c-0.076,0.368-0.114,0.647-0.114,0.838c0,0.237,0.062,0.419,0.184,0.546S262.872,144.257,263.092,144.257z"/>
	<path fill="#333333" d="M269.573,137.916c0.292,0,0.546,0.03,0.762,0.089l-0.229,0.952c-0.224-0.055-0.446-0.083-0.667-0.083
		c-0.385,0-0.746,0.127-1.083,0.381c-0.336,0.254-0.63,0.606-0.882,1.057c-0.252,0.45-0.437,0.951-0.556,1.501L266.24,145h-1.066
		l1.485-6.957h0.882l-0.14,1.289h0.063c0.305-0.402,0.557-0.691,0.755-0.867c0.199-0.175,0.407-0.311,0.625-0.406
		C269.064,137.963,269.306,137.916,269.573,137.916z"/>
	<path fill="#333333" d="M274.003,137.916c0.389,0,0.736,0.104,1.041,0.314c0.305,0.209,0.542,0.511,0.711,0.904h0.07l0.425-1.092
		h0.806L275.578,145h-0.844l0.165-1.327h-0.051c-0.757,0.969-1.555,1.454-2.393,1.454c-0.588,0-1.049-0.209-1.384-0.628
		s-0.501-0.992-0.501-1.72c0-0.88,0.15-1.697,0.451-2.45s0.715-1.344,1.244-1.771S273.373,137.916,274.003,137.916z
		 M272.797,144.244c0.411,0,0.819-0.196,1.225-0.587c0.406-0.391,0.736-0.901,0.99-1.529c0.254-0.629,0.381-1.258,0.381-1.889
		c0-0.436-0.119-0.783-0.355-1.041s-0.548-0.387-0.933-0.387c-0.44,0-0.85,0.182-1.228,0.546c-0.379,0.364-0.676,0.857-0.892,1.479
		s-0.324,1.278-0.324,1.968c0,0.482,0.1,0.843,0.298,1.082C272.158,144.125,272.438,144.244,272.797,144.244z"/>
	<path fill="#333333" d="M280.503,145.126c-0.821,0-1.458-0.227-1.911-0.679s-0.679-1.092-0.679-1.917
		c0-0.846,0.157-1.627,0.47-2.342s0.746-1.272,1.298-1.673c0.553-0.399,1.173-0.6,1.863-0.6c0.58,0,1.147,0.108,1.701,0.324
		l-0.298,0.895c-0.508-0.216-0.971-0.324-1.39-0.324c-0.474,0-0.907,0.162-1.298,0.486c-0.392,0.323-0.698,0.774-0.921,1.352
		c-0.222,0.578-0.333,1.205-0.333,1.882c0,0.542,0.141,0.963,0.422,1.263c0.282,0.3,0.67,0.451,1.165,0.451
		c0.305,0,0.592-0.042,0.863-0.127s0.538-0.184,0.8-0.298v0.908C281.73,144.993,281.146,145.126,280.503,145.126z"/>
	<path fill="#333333" d="M285.651,144.257c0.233,0,0.538-0.055,0.914-0.165v0.819c-0.144,0.059-0.322,0.11-0.533,0.152
		s-0.381,0.063-0.508,0.063c-0.529,0-0.934-0.126-1.215-0.378c-0.282-0.251-0.422-0.627-0.422-1.126
		c0-0.279,0.038-0.597,0.114-0.952l0.806-3.821h-1.092l0.089-0.463l1.174-0.495l0.793-1.447h0.622l-0.349,1.6h1.739l-0.165,0.806
		h-1.733l-0.819,3.834c-0.076,0.368-0.114,0.647-0.114,0.838c0,0.237,0.062,0.419,0.184,0.546S285.431,144.257,285.651,144.257z"/>
	<path fill="#333333" d="M288.8,145h-1.066l1.485-6.957h1.066L288.8,145z M289.517,136.265c0-0.237,0.068-0.431,0.203-0.581
		c0.135-0.15,0.311-0.225,0.527-0.225c0.373,0,0.559,0.19,0.559,0.571c0,0.233-0.071,0.43-0.212,0.59
		c-0.142,0.161-0.306,0.241-0.492,0.241c-0.169,0-0.309-0.052-0.419-0.155C289.572,136.603,289.517,136.456,289.517,136.265z"/>
	<path fill="#333333" d="M294.741,137.954c0.804,0,1.439,0.238,1.904,0.714c0.465,0.477,0.698,1.131,0.698,1.965
		c0,0.795-0.152,1.547-0.457,2.253s-0.717,1.252-1.238,1.638s-1.109,0.578-1.765,0.578c-0.812,0-1.449-0.239-1.911-0.717
		s-0.692-1.132-0.692-1.961c0-0.804,0.154-1.561,0.463-2.27c0.309-0.708,0.726-1.252,1.25-1.631
		C293.521,138.143,294.102,137.954,294.741,137.954z M296.239,140.486c0-0.487-0.132-0.881-0.397-1.184
		c-0.264-0.302-0.623-0.454-1.076-0.454c-0.461,0-0.875,0.157-1.241,0.47c-0.366,0.313-0.65,0.748-0.851,1.304
		c-0.201,0.557-0.302,1.176-0.302,1.857c0,0.554,0.134,0.983,0.403,1.286c0.269,0.302,0.655,0.454,1.158,0.454
		c0.44,0,0.836-0.154,1.187-0.463s0.625-0.748,0.822-1.317C296.141,141.869,296.239,141.218,296.239,140.486z"/>
	<path fill="#333333" d="M302.581,145l0.939-4.393c0.084-0.44,0.127-0.745,0.127-0.914c0-0.267-0.075-0.48-0.225-0.641
		c-0.15-0.161-0.391-0.241-0.721-0.241c-0.376,0-0.744,0.127-1.102,0.381c-0.357,0.254-0.673,0.616-0.945,1.085
		c-0.273,0.47-0.479,1.039-0.619,1.708L299.394,145h-1.066l1.485-6.957h0.882l-0.14,1.289h0.063
		c0.406-0.516,0.799-0.881,1.178-1.095c0.378-0.213,0.771-0.32,1.177-0.32c0.538,0,0.961,0.147,1.273,0.441
		c0.311,0.294,0.466,0.706,0.466,1.234c0,0.334-0.049,0.715-0.146,1.143L303.66,145H302.581z"/>
	<path fill="#333333" d="M310.261,145h-1.066l2.107-9.877h1.066L310.261,145z"/>
	<path fill="#333333" d="M316.19,137.916c0.389,0,0.736,0.104,1.041,0.314c0.305,0.209,0.542,0.511,0.711,0.904h0.07l0.425-1.092
		h0.806L317.764,145h-0.844l0.165-1.327h-0.051c-0.757,0.969-1.555,1.454-2.393,1.454c-0.588,0-1.049-0.209-1.384-0.628
		s-0.501-0.992-0.501-1.72c0-0.88,0.15-1.697,0.451-2.45s0.715-1.344,1.244-1.771S315.56,137.916,316.19,137.916z M314.984,144.244
		c0.411,0,0.819-0.196,1.225-0.587c0.406-0.391,0.736-0.901,0.99-1.529c0.254-0.629,0.381-1.258,0.381-1.889
		c0-0.436-0.119-0.783-0.355-1.041s-0.548-0.387-0.933-0.387c-0.44,0-0.85,0.182-1.228,0.546c-0.379,0.364-0.676,0.857-0.892,1.479
		s-0.324,1.278-0.324,1.968c0,0.482,0.1,0.843,0.298,1.082C314.345,144.125,314.624,144.244,314.984,144.244z"/>
	<path fill="#333333" d="M320.1,138.042h1.066l0.47,3.459c0.042,0.292,0.083,0.723,0.124,1.292c0.04,0.569,0.06,1.027,0.06,1.375
		h0.038c0.148-0.368,0.332-0.792,0.552-1.27s0.383-0.808,0.489-0.99l2.063-3.866h1.13l-4.418,8.138
		c-0.394,0.728-0.783,1.233-1.168,1.517s-0.849,0.425-1.39,0.425c-0.305,0-0.601-0.044-0.889-0.133v-0.857
		c0.267,0.076,0.544,0.114,0.832,0.114c0.347,0,0.645-0.107,0.892-0.32c0.248-0.214,0.488-0.53,0.721-0.949l0.482-0.863
		L320.1,138.042z"/>
	<path fill="#333333" d="M328.606,145.126c-0.778,0-1.391-0.23-1.834-0.692c-0.445-0.461-0.667-1.1-0.667-1.917
		c0-0.795,0.157-1.558,0.473-2.289c0.315-0.729,0.733-1.298,1.254-1.704s1.094-0.609,1.72-0.609c0.648,0,1.135,0.141,1.461,0.422
		c0.325,0.282,0.488,0.674,0.488,1.178c0,0.762-0.352,1.359-1.054,1.793c-0.702,0.434-1.708,0.651-3.015,0.651h-0.21l-0.025,0.508
		c0,0.554,0.13,0.987,0.391,1.298c0.26,0.311,0.663,0.466,1.209,0.466c0.267,0,0.541-0.038,0.822-0.114s0.632-0.216,1.05-0.419
		v0.927c-0.397,0.186-0.748,0.316-1.053,0.39C329.311,145.089,328.974,145.126,328.606,145.126z M329.489,138.823
		c-0.437,0-0.846,0.199-1.229,0.597s-0.676,0.95-0.879,1.657h0.076c0.965,0,1.704-0.126,2.218-0.378
		c0.515-0.251,0.771-0.617,0.771-1.095c0-0.224-0.077-0.411-0.231-0.559S329.819,138.823,329.489,138.823z"/>
	<path fill="#333333" d="M336.667,137.916c0.292,0,0.546,0.03,0.762,0.089l-0.229,0.952c-0.225-0.055-0.446-0.083-0.666-0.083
		c-0.386,0-0.746,0.127-1.083,0.381c-0.336,0.254-0.63,0.606-0.882,1.057c-0.252,0.45-0.438,0.951-0.556,1.501L333.335,145h-1.066
		l1.484-6.957h0.883l-0.14,1.289h0.063c0.305-0.402,0.557-0.691,0.756-0.867c0.198-0.175,0.407-0.311,0.625-0.406
		C336.159,137.963,336.401,137.916,336.667,137.916z"/>
</g>
<g>
	<g>
		<line fill="none" stroke="#000000" stroke-miterlimit="10" x1="261.559" y1="107" x2="255.932" y2="109.083"/>
		
			<line fill="none" stroke="#000000" stroke-miterlimit="10" stroke-dasharray="11.042,11.042" x1="245.577" y1="112.917" x2="126.491" y2="157"/>
		<line fill="none" stroke="#000000" stroke-miterlimit="10" x1="121.314" y1="158.917" x2="115.687" y2="161"/>
	</g>
</g>
<rect x="366.895" y="317.193" fill="#2E58A6" width="15.074" height="14.162"/>
<rect x="424.229" y="272.411" fill="#2E58A6" width="15.074" height="14.162"/>
<rect x="414.5" y="229.446" fill="#2E58A6" width="15.074" height="14.162"/>
<rect x="480.772" y="241.646" fill="#2E58A6" width="15.074" height="14.162"/>
<rect x="443.744" y="319.645" fill="#2E58A6" width="15.074" height="14.162"/>
<rect x="340.228" y="326.726" fill="#2E58A6" width="15.074" height="14.162"/>
<g>
</g>
<g>
</g>
<g>
</g>
<g>
</g>
<g>
</g>
<g>
</g>
</svg>
