<?xml version="1.0" encoding="utf-8"?>
<!-- Generator: Adobe Illustrator 16.0.0, SVG Export Plug-In . SVG Version: 6.00 Build 0)  -->
<!DOCTYPE svg PUBLIC "-//W3C//DTD SVG 1.1//EN" "http://www.w3.org/Graphics/SVG/1.1/DTD/svg11.dtd">
<svg version="1.1" id="Layer_1" xmlns="http://www.w3.org/2000/svg" xmlns:xlink="http://www.w3.org/1999/xlink" x="0px" y="0px"
	 width="542px" height="348px" viewBox="0 0 542 348" enable-background="new 0 0 542 348" xml:space="preserve">
<rect x="22.5" y="100" fill="#F3EF7D" width="503" height="54"/>
<g>
	<rect x="59.208" y="154" fill="#C2000B" width="116.959" height="38.596"/>
	<g>
		<path fill="#FFFFFF" d="M78.788,172.069c0,1.26-0.223,2.316-0.67,3.168c-0.446,0.853-1.102,1.477-1.966,1.871l2.578,2.879h-2.908
			l-1.963-2.402H73.69c-1.641,0-2.9-0.477-3.779-1.428c-0.879-0.953-1.318-2.319-1.318-4.102s0.44-3.144,1.322-4.084
			c0.881-0.939,2.145-1.41,3.791-1.41s2.904,0.475,3.776,1.422C78.352,168.931,78.788,170.293,78.788,172.069z M70.973,172.069
			c0,1.197,0.227,2.098,0.681,2.703s1.133,0.908,2.036,0.908c1.812,0,2.717-1.203,2.717-3.611c0-2.411-0.901-3.617-2.703-3.617
			c-0.903,0-1.584,0.304-2.043,0.911C71.203,169.972,70.973,170.874,70.973,172.069z"/>
		<path fill="#FFFFFF" d="M86.632,177.438l-0.3-1.047h-0.117c-0.239,0.381-0.579,0.675-1.018,0.882
			c-0.439,0.208-0.94,0.312-1.501,0.312c-0.962,0-1.687-0.258-2.175-0.772c-0.488-0.516-0.732-1.257-0.732-2.224v-5.339h2.234v4.782
			c0,0.592,0.105,1.034,0.315,1.33c0.21,0.295,0.544,0.443,1.003,0.443c0.625,0,1.077-0.209,1.355-0.627
			c0.278-0.417,0.417-1.109,0.417-2.076v-3.853h2.234v8.188H86.632z"/>
		<path fill="#FFFFFF" d="M94.396,177.585c-1.318,0-2.349-0.363-3.091-1.092c-0.742-0.727-1.113-1.758-1.113-3.09
			c0-1.372,0.343-2.434,1.029-3.183c0.686-0.75,1.634-1.124,2.845-1.124c1.157,0,2.058,0.329,2.703,0.988s0.967,1.57,0.967,2.732
			v1.084h-5.281c0.024,0.635,0.212,1.13,0.564,1.486s0.845,0.535,1.479,0.535c0.493,0,0.959-0.052,1.399-0.154
			s0.898-0.266,1.377-0.49v1.729c-0.391,0.195-0.808,0.34-1.252,0.436C95.578,177.537,95.036,177.585,94.396,177.585z
			 M94.081,170.686c-0.474,0-0.845,0.15-1.113,0.45c-0.269,0.301-0.422,0.727-0.461,1.278h3.135
			c-0.01-0.552-0.154-0.978-0.432-1.278C94.931,170.836,94.555,170.686,94.081,170.686z"/>
		<path fill="#FFFFFF" d="M104.123,169.097c0.303,0,0.554,0.021,0.754,0.065l-0.168,2.095c-0.181-0.049-0.4-0.073-0.659-0.073
			c-0.713,0-1.269,0.183-1.666,0.55c-0.398,0.365-0.597,0.879-0.597,1.537v4.168h-2.234v-8.188h1.692l0.33,1.377h0.11
			c0.254-0.459,0.597-0.829,1.029-1.109C103.145,169.236,103.615,169.097,104.123,169.097z"/>
		<path fill="#FFFFFF" d="M105.192,169.25h2.446l1.545,4.606c0.132,0.401,0.222,0.875,0.271,1.422h0.044
			c0.054-0.503,0.159-0.977,0.315-1.422l1.516-4.606h2.395l-3.464,9.235c-0.317,0.854-0.771,1.494-1.358,1.92
			c-0.589,0.424-1.276,0.637-2.062,0.637c-0.386,0-0.764-0.042-1.135-0.125v-1.771c0.269,0.062,0.562,0.095,0.879,0.095
			c0.396,0,0.741-0.121,1.036-0.362c0.295-0.242,0.526-0.607,0.692-1.096l0.132-0.402L105.192,169.25z"/>
		<path fill="#FFFFFF" d="M125.136,177.438h-6.167V166.73h6.167v1.86h-3.896v2.352h3.625v1.859h-3.625v2.762h3.896V177.438z"/>
		<path fill="#FFFFFF" d="M134.752,177.438h-2.234v-4.783c0-0.59-0.105-1.033-0.315-1.329c-0.21-0.295-0.544-0.442-1.003-0.442
			c-0.625,0-1.077,0.208-1.355,0.626c-0.278,0.417-0.417,1.109-0.417,2.076v3.853h-2.234v-8.188h1.707l0.3,1.048h0.125
			c0.249-0.396,0.592-0.695,1.029-0.897c0.437-0.203,0.934-0.304,1.491-0.304c0.952,0,1.675,0.257,2.168,0.772
			c0.493,0.515,0.74,1.259,0.74,2.229V177.438z"/>
		<path fill="#FFFFFF" d="M144.179,169.25v1.136l-1.282,0.329c0.234,0.366,0.352,0.776,0.352,1.23c0,0.879-0.307,1.563-0.919,2.055
			c-0.613,0.49-1.464,0.735-2.553,0.735l-0.403-0.021l-0.33-0.037c-0.229,0.176-0.344,0.372-0.344,0.586
			c0,0.322,0.41,0.484,1.23,0.484h1.392c0.898,0,1.583,0.192,2.054,0.578s0.707,0.952,0.707,1.699c0,0.957-0.399,1.699-1.197,2.227
			c-0.799,0.527-1.945,0.791-3.439,0.791c-1.143,0-2.016-0.199-2.619-0.597c-0.603-0.398-0.904-0.956-0.904-1.674
			c0-0.493,0.154-0.906,0.461-1.237c0.308-0.332,0.759-0.569,1.355-0.711c-0.229-0.098-0.43-0.258-0.601-0.479
			c-0.171-0.223-0.256-0.458-0.256-0.707c0-0.312,0.09-0.572,0.271-0.78c0.181-0.207,0.442-0.411,0.784-0.611
			c-0.43-0.186-0.771-0.483-1.022-0.894s-0.377-0.894-0.377-1.45c0-0.894,0.291-1.584,0.872-2.072s1.411-0.732,2.49-0.732
			c0.229,0,0.501,0.021,0.817,0.062c0.314,0.042,0.516,0.072,0.604,0.092H144.179z M137.858,178.596c0,0.308,0.147,0.55,0.443,0.726
			c0.295,0.176,0.709,0.264,1.241,0.264c0.801,0,1.428-0.11,1.882-0.33s0.681-0.52,0.681-0.9c0-0.309-0.134-0.521-0.403-0.638
			s-0.684-0.176-1.245-0.176h-1.157c-0.41,0-0.753,0.097-1.029,0.289C137.996,178.023,137.858,178.278,137.858,178.596z
			 M138.671,171.931c0,0.444,0.101,0.796,0.304,1.055c0.202,0.259,0.511,0.389,0.926,0.389c0.42,0,0.728-0.13,0.923-0.389
			s0.293-0.61,0.293-1.055c0-0.986-0.405-1.479-1.216-1.479C139.081,170.451,138.671,170.944,138.671,171.931z"/>
		<path fill="#FFFFFF" d="M145.431,167.134c0-0.728,0.405-1.092,1.216-1.092s1.216,0.364,1.216,1.092
			c0,0.347-0.102,0.616-0.304,0.809c-0.203,0.193-0.506,0.289-0.912,0.289C145.836,168.231,145.431,167.866,145.431,167.134z
			 M147.76,177.438h-2.234v-8.188h2.234V177.438z"/>
		<path fill="#FFFFFF" d="M157.663,177.438h-2.234v-4.783c0-0.59-0.105-1.033-0.315-1.329c-0.21-0.295-0.544-0.442-1.003-0.442
			c-0.625,0-1.077,0.208-1.355,0.626c-0.278,0.417-0.417,1.109-0.417,2.076v3.853h-2.234v-8.188h1.707l0.3,1.048h0.125
			c0.249-0.396,0.592-0.695,1.029-0.897c0.437-0.203,0.934-0.304,1.491-0.304c0.952,0,1.675,0.257,2.168,0.772
			c0.493,0.515,0.74,1.259,0.74,2.229V177.438z"/>
		<path fill="#FFFFFF" d="M163.668,177.585c-1.318,0-2.349-0.363-3.091-1.092c-0.742-0.727-1.113-1.758-1.113-3.09
			c0-1.372,0.343-2.434,1.029-3.183c0.686-0.75,1.634-1.124,2.845-1.124c1.157,0,2.058,0.329,2.703,0.988s0.967,1.57,0.967,2.732
			v1.084h-5.281c0.024,0.635,0.212,1.13,0.564,1.486s0.845,0.535,1.479,0.535c0.493,0,0.959-0.052,1.399-0.154
			s0.898-0.266,1.377-0.49v1.729c-0.391,0.195-0.808,0.34-1.252,0.436C164.85,177.537,164.308,177.585,163.668,177.585z
			 M163.354,170.686c-0.474,0-0.845,0.15-1.113,0.45c-0.269,0.301-0.422,0.727-0.461,1.278h3.135
			c-0.01-0.552-0.154-0.978-0.432-1.278C164.203,170.836,163.827,170.686,163.354,170.686z"/>
	</g>
</g>
<g>
	<rect x="355.67" y="154" fill="#C2000B" width="116.958" height="38.597"/>
	<g>
		<path fill="#FFFFFF" d="M375.25,172.069c0,1.26-0.223,2.316-0.67,3.168c-0.446,0.853-1.102,1.477-1.966,1.871l2.578,2.879h-2.908
			l-1.963-2.402h-0.168c-1.641,0-2.9-0.477-3.779-1.428c-0.879-0.953-1.318-2.319-1.318-4.102s0.44-3.144,1.322-4.084
			c0.881-0.939,2.145-1.41,3.791-1.41s2.904,0.475,3.776,1.422C374.814,168.931,375.25,170.293,375.25,172.069z M367.435,172.069
			c0,1.197,0.227,2.098,0.681,2.703s1.133,0.908,2.036,0.908c1.812,0,2.717-1.203,2.717-3.611c0-2.411-0.901-3.617-2.703-3.617
			c-0.903,0-1.584,0.304-2.043,0.911C367.665,169.972,367.435,170.874,367.435,172.069z"/>
		<path fill="#FFFFFF" d="M383.094,177.438l-0.3-1.047h-0.117c-0.239,0.381-0.579,0.675-1.018,0.882
			c-0.439,0.208-0.94,0.312-1.501,0.312c-0.962,0-1.687-0.258-2.175-0.772c-0.488-0.516-0.732-1.257-0.732-2.224v-5.339h2.234v4.782
			c0,0.592,0.105,1.034,0.315,1.33c0.21,0.295,0.544,0.443,1.003,0.443c0.625,0,1.077-0.209,1.355-0.627
			c0.278-0.417,0.417-1.109,0.417-2.076v-3.853h2.234v8.188H383.094z"/>
		<path fill="#FFFFFF" d="M390.858,177.585c-1.318,0-2.349-0.363-3.091-1.092c-0.742-0.727-1.113-1.758-1.113-3.09
			c0-1.372,0.343-2.434,1.029-3.183c0.686-0.75,1.634-1.124,2.845-1.124c1.157,0,2.058,0.329,2.703,0.988s0.967,1.57,0.967,2.732
			v1.084h-5.281c0.024,0.635,0.212,1.13,0.564,1.486s0.845,0.535,1.479,0.535c0.493,0,0.959-0.052,1.399-0.154
			s0.898-0.266,1.377-0.49v1.729c-0.391,0.195-0.808,0.34-1.252,0.436C392.04,177.537,391.498,177.585,390.858,177.585z
			 M390.543,170.686c-0.474,0-0.845,0.15-1.113,0.45c-0.269,0.301-0.422,0.727-0.461,1.278h3.135
			c-0.01-0.552-0.154-0.978-0.432-1.278C391.393,170.836,391.017,170.686,390.543,170.686z"/>
		<path fill="#FFFFFF" d="M400.584,169.097c0.303,0,0.554,0.021,0.754,0.065l-0.169,2.095c-0.18-0.049-0.4-0.073-0.659-0.073
			c-0.713,0-1.269,0.183-1.666,0.55c-0.398,0.365-0.597,0.879-0.597,1.537v4.168h-2.234v-8.188h1.692l0.33,1.377h0.11
			c0.254-0.459,0.597-0.829,1.029-1.109C399.607,169.236,400.077,169.097,400.584,169.097z"/>
		<path fill="#FFFFFF" d="M401.654,169.25h2.445l1.546,4.606c0.132,0.401,0.222,0.875,0.271,1.422h0.045
			c0.053-0.503,0.158-0.977,0.314-1.422l1.516-4.606h2.396l-3.464,9.235c-0.318,0.854-0.771,1.494-1.359,1.92
			c-0.588,0.424-1.275,0.637-2.062,0.637c-0.386,0-0.765-0.042-1.136-0.125v-1.771c0.27,0.062,0.562,0.095,0.879,0.095
			c0.396,0,0.741-0.121,1.037-0.362c0.295-0.242,0.525-0.607,0.691-1.096l0.133-0.402L401.654,169.25z"/>
		<path fill="#FFFFFF" d="M421.598,177.438h-6.167V166.73h6.167v1.86h-3.896v2.352h3.625v1.859h-3.625v2.762h3.896V177.438z"/>
		<path fill="#FFFFFF" d="M431.215,177.438h-2.234v-4.783c0-0.59-0.105-1.033-0.314-1.329c-0.211-0.295-0.545-0.442-1.004-0.442
			c-0.625,0-1.076,0.208-1.355,0.626c-0.277,0.417-0.417,1.109-0.417,2.076v3.853h-2.233v-8.188h1.706l0.3,1.048h0.125
			c0.249-0.396,0.592-0.695,1.029-0.897c0.437-0.203,0.934-0.304,1.49-0.304c0.952,0,1.675,0.257,2.168,0.772
			c0.493,0.515,0.74,1.259,0.74,2.229V177.438z"/>
		<path fill="#FFFFFF" d="M440.641,169.25v1.136l-1.281,0.329c0.234,0.366,0.352,0.776,0.352,1.23c0,0.879-0.307,1.563-0.92,2.055
			c-0.613,0.49-1.463,0.735-2.553,0.735l-0.402-0.021l-0.33-0.037c-0.229,0.176-0.344,0.372-0.344,0.586
			c0,0.322,0.41,0.484,1.23,0.484h1.392c0.898,0,1.583,0.192,2.054,0.578c0.472,0.386,0.707,0.952,0.707,1.699
			c0,0.957-0.398,1.699-1.197,2.227s-1.944,0.791-3.438,0.791c-1.143,0-2.016-0.199-2.618-0.597
			c-0.604-0.398-0.904-0.956-0.904-1.674c0-0.493,0.153-0.906,0.461-1.237c0.308-0.332,0.76-0.569,1.355-0.711
			c-0.23-0.098-0.43-0.258-0.602-0.479c-0.17-0.223-0.256-0.458-0.256-0.707c0-0.312,0.09-0.572,0.271-0.78
			c0.18-0.207,0.441-0.411,0.783-0.611c-0.43-0.186-0.771-0.483-1.021-0.894c-0.252-0.41-0.377-0.894-0.377-1.45
			c0-0.894,0.29-1.584,0.871-2.072s1.411-0.732,2.49-0.732c0.229,0,0.502,0.021,0.816,0.062c0.314,0.042,0.517,0.072,0.604,0.092
			H440.641z M434.32,178.596c0,0.308,0.146,0.55,0.443,0.726c0.295,0.176,0.709,0.264,1.24,0.264c0.801,0,1.429-0.11,1.883-0.33
			s0.682-0.52,0.682-0.9c0-0.309-0.135-0.521-0.403-0.638s-0.684-0.176-1.245-0.176h-1.157c-0.41,0-0.753,0.097-1.028,0.289
			C434.457,178.023,434.32,178.278,434.32,178.596z M435.133,171.931c0,0.444,0.102,0.796,0.305,1.055
			c0.201,0.259,0.511,0.389,0.926,0.389c0.42,0,0.728-0.13,0.923-0.389s0.293-0.61,0.293-1.055c0-0.986-0.405-1.479-1.216-1.479
			C435.543,170.451,435.133,170.944,435.133,171.931z"/>
		<path fill="#FFFFFF" d="M441.893,167.134c0-0.728,0.406-1.092,1.217-1.092s1.215,0.364,1.215,1.092
			c0,0.347-0.102,0.616-0.304,0.809c-0.202,0.193-0.507,0.289-0.911,0.289C442.299,168.231,441.893,167.866,441.893,167.134z
			 M444.223,177.438h-2.234v-8.188h2.234V177.438z"/>
		<path fill="#FFFFFF" d="M454.125,177.438h-2.234v-4.783c0-0.59-0.105-1.033-0.314-1.329c-0.211-0.295-0.545-0.442-1.004-0.442
			c-0.625,0-1.076,0.208-1.355,0.626c-0.277,0.417-0.417,1.109-0.417,2.076v3.853h-2.233v-8.188h1.706l0.3,1.048h0.125
			c0.249-0.396,0.592-0.695,1.029-0.897c0.437-0.203,0.934-0.304,1.49-0.304c0.952,0,1.675,0.257,2.168,0.772
			c0.493,0.515,0.74,1.259,0.74,2.229V177.438z"/>
		<path fill="#FFFFFF" d="M460.131,177.585c-1.318,0-2.35-0.363-3.092-1.092c-0.742-0.727-1.113-1.758-1.113-3.09
			c0-1.372,0.344-2.434,1.029-3.183c0.686-0.75,1.635-1.124,2.846-1.124c1.157,0,2.059,0.329,2.703,0.988s0.967,1.57,0.967,2.732
			v1.084h-5.281c0.024,0.635,0.213,1.13,0.564,1.486s0.844,0.535,1.479,0.535c0.494,0,0.96-0.052,1.399-0.154
			s0.898-0.266,1.377-0.49v1.729c-0.391,0.195-0.808,0.34-1.253,0.436C461.312,177.537,460.77,177.585,460.131,177.585z
			 M459.815,170.686c-0.474,0-0.845,0.15-1.113,0.45c-0.269,0.301-0.423,0.727-0.462,1.278h3.135
			c-0.01-0.552-0.153-0.978-0.432-1.278C460.665,170.836,460.289,170.686,459.815,170.686z"/>
	</g>
</g>
<rect x="64.471" y="226.807" fill="#2E58A6" width="106.433" height="100"/>
<g>
	<path d="M12.793,332.596c-0.854,0-1.516,0.321-1.985,0.963c-0.469,0.643-0.703,1.537-0.703,2.685c0,2.388,0.896,3.581,2.688,3.581
		c0.752,0,1.663-0.188,2.732-0.563v1.904c-0.879,0.366-1.86,0.55-2.944,0.55c-1.558,0-2.749-0.473-3.574-1.418
		s-1.238-2.301-1.238-4.068c0-1.113,0.203-2.088,0.608-2.926s0.987-1.48,1.747-1.926c0.759-0.447,1.649-0.671,2.669-0.671
		c1.04,0,2.085,0.251,3.135,0.755l-0.732,1.846c-0.4-0.191-0.803-0.357-1.208-0.498C13.582,332.666,13.184,332.596,12.793,332.596z"
		/>
	<path d="M21.333,341.715c-1.318,0-2.349-0.364-3.091-1.092s-1.113-1.758-1.113-3.091c0-1.372,0.343-2.433,1.029-3.183
		c0.686-0.749,1.634-1.124,2.845-1.124c1.157,0,2.058,0.329,2.703,0.989c0.645,0.658,0.967,1.569,0.967,2.731v1.084h-5.281
		c0.024,0.635,0.212,1.13,0.564,1.487c0.352,0.355,0.845,0.534,1.479,0.534c0.493,0,0.959-0.052,1.399-0.153
		c0.439-0.104,0.898-0.267,1.377-0.491v1.729c-0.391,0.195-0.808,0.341-1.252,0.437C22.515,341.666,21.973,341.715,21.333,341.715z
		 M21.018,334.814c-0.474,0-0.845,0.15-1.113,0.451s-0.422,0.727-0.461,1.277h3.135c-0.01-0.551-0.154-0.977-0.432-1.277
		S21.492,334.814,21.018,334.814z"/>
	<path d="M34.048,341.568h-2.234v-4.783c0-0.591-0.105-1.033-0.315-1.33c-0.21-0.295-0.544-0.442-1.003-0.442
		c-0.625,0-1.077,0.208-1.355,0.626s-0.417,1.109-0.417,2.076v3.854h-2.234v-8.189h1.707l0.3,1.048h0.125
		c0.249-0.396,0.592-0.694,1.029-0.897c0.437-0.202,0.934-0.304,1.491-0.304c0.952,0,1.675,0.258,2.168,0.772
		c0.493,0.516,0.74,1.259,0.74,2.23V341.568z"/>
	<path d="M39.797,339.935c0.391,0,0.859-0.085,1.406-0.257v1.663c-0.557,0.249-1.24,0.374-2.051,0.374
		c-0.894,0-1.544-0.227-1.952-0.678c-0.408-0.451-0.612-1.129-0.612-2.033v-3.947H35.52v-0.945l1.23-0.746l0.645-1.729h1.428v1.742
		h2.292v1.678h-2.292v3.947c0,0.318,0.089,0.553,0.268,0.703C39.269,339.859,39.504,339.935,39.797,339.935z"/>
	<path d="M47.429,333.226c0.303,0,0.554,0.022,0.754,0.065l-0.168,2.096c-0.181-0.049-0.4-0.074-0.659-0.074
		c-0.713,0-1.269,0.184-1.666,0.55c-0.398,0.366-0.597,0.879-0.597,1.538v4.168h-2.234v-8.189h1.692l0.33,1.377h0.11
		c0.254-0.459,0.597-0.828,1.029-1.109C46.452,333.366,46.921,333.226,47.429,333.226z"/>
	<path d="M54.871,341.568l-0.432-1.113H54.38c-0.376,0.473-0.763,0.801-1.161,0.984c-0.398,0.184-0.917,0.275-1.557,0.275
		c-0.786,0-1.405-0.225-1.856-0.674c-0.452-0.449-0.678-1.09-0.678-1.92c0-0.869,0.304-1.51,0.912-1.922
		c0.607-0.412,1.524-0.641,2.75-0.686l1.421-0.043v-0.359c0-0.83-0.425-1.245-1.274-1.245c-0.654,0-1.423,0.198-2.307,0.593
		l-0.74-1.508c0.942-0.494,1.987-0.74,3.135-0.74c1.099,0,1.941,0.239,2.527,0.718s0.879,1.206,0.879,2.183v5.457H54.871z
		 M54.211,337.773l-0.864,0.029c-0.649,0.02-1.133,0.137-1.45,0.352s-0.476,0.543-0.476,0.982c0,0.629,0.361,0.944,1.084,0.944
		c0.518,0,0.931-0.149,1.242-0.446c0.31-0.299,0.465-0.693,0.465-1.188V337.773z"/>
	<path d="M60.964,341.568H58.73v-11.396h2.234V341.568z"/>
	<path d="M63.213,331.263c0-0.728,0.405-1.091,1.216-1.091s1.216,0.363,1.216,1.091c0,0.347-0.102,0.616-0.304,0.81
		s-0.506,0.289-0.912,0.289C63.618,332.361,63.213,331.995,63.213,331.263z M65.542,341.568h-2.234v-8.189h2.234V341.568z"/>
	<path d="M73.584,341.568h-6.467v-1.318l3.794-5.164h-3.567v-1.707h6.108v1.451l-3.691,5.031h3.823V341.568z"/>
	<path d="M78.909,341.715c-1.318,0-2.349-0.364-3.091-1.092s-1.113-1.758-1.113-3.091c0-1.372,0.343-2.433,1.029-3.183
		c0.686-0.749,1.634-1.124,2.845-1.124c1.157,0,2.058,0.329,2.703,0.989c0.645,0.658,0.967,1.569,0.967,2.731v1.084h-5.281
		c0.024,0.635,0.212,1.13,0.564,1.487c0.352,0.355,0.845,0.534,1.479,0.534c0.493,0,0.959-0.052,1.399-0.153
		c0.439-0.104,0.898-0.267,1.377-0.491v1.729c-0.391,0.195-0.808,0.341-1.252,0.437C80.09,341.666,79.548,341.715,78.909,341.715z
		 M78.594,334.814c-0.474,0-0.845,0.15-1.113,0.451s-0.422,0.727-0.461,1.277h3.135c-0.01-0.551-0.154-0.977-0.432-1.277
		S79.067,334.814,78.594,334.814z"/>
	<path d="M86.658,341.715c-0.962,0-1.718-0.374-2.267-1.121c-0.55-0.747-0.824-1.782-0.824-3.105c0-1.343,0.279-2.389,0.839-3.139
		c0.559-0.749,1.329-1.124,2.311-1.124c1.03,0,1.816,0.4,2.358,1.201h0.073c-0.112-0.61-0.168-1.155-0.168-1.634v-2.621h2.241
		v11.396h-1.714l-0.432-1.062h-0.095C88.472,341.312,87.698,341.715,86.658,341.715z M87.441,339.935
		c0.571,0,0.99-0.166,1.256-0.498c0.266-0.332,0.411-0.896,0.436-1.692v-0.241c0-0.879-0.136-1.509-0.406-1.89
		c-0.271-0.381-0.712-0.571-1.322-0.571c-0.498,0-0.885,0.212-1.161,0.634s-0.414,1.036-0.414,1.842s0.139,1.41,0.417,1.812
		S86.924,339.935,87.441,339.935z"/>
	<path d="M106.243,341.568h-2.578l-2.805-4.512l-0.959,0.688v3.824h-2.271v-10.709H99.9v4.9l0.894-1.26l2.9-3.641h2.52l-3.735,4.739
		L106.243,341.568z"/>
	<path d="M114.973,341.568h-2.234v-4.783c0-0.591-0.105-1.033-0.315-1.33c-0.21-0.295-0.544-0.442-1.003-0.442
		c-0.625,0-1.077,0.208-1.355,0.626s-0.417,1.109-0.417,2.076v3.854h-2.234v-8.189h1.707l0.3,1.048h0.125
		c0.249-0.396,0.592-0.694,1.029-0.897c0.437-0.202,0.934-0.304,1.491-0.304c0.952,0,1.675,0.258,2.168,0.772
		c0.493,0.516,0.74,1.259,0.74,2.23V341.568z"/>
	<path d="M124.714,337.459c0,1.333-0.352,2.375-1.055,3.127s-1.682,1.129-2.937,1.129c-0.786,0-1.479-0.172-2.08-0.518
		c-0.601-0.344-1.062-0.838-1.384-1.482s-0.483-1.396-0.483-2.256c0-1.338,0.349-2.378,1.047-3.12s1.68-1.113,2.944-1.113
		c0.786,0,1.479,0.171,2.08,0.513s1.062,0.832,1.384,1.473C124.553,335.85,124.714,336.6,124.714,337.459z M119.053,337.459
		c0,0.811,0.133,1.424,0.399,1.838c0.266,0.416,0.7,0.623,1.3,0.623c0.596,0,1.024-0.206,1.286-0.619
		c0.261-0.412,0.392-1.026,0.392-1.842c0-0.811-0.132-1.418-0.396-1.824c-0.264-0.404-0.696-0.607-1.296-0.607
		c-0.596,0-1.025,0.201-1.289,0.604C119.185,336.035,119.053,336.644,119.053,337.459z"/>
	<path d="M133.291,341.568l-0.63-2.864l-0.85-3.618h-0.051l-1.494,6.482h-2.402l-2.329-8.189h2.227l0.945,3.626
		c0.151,0.649,0.305,1.546,0.461,2.688h0.044c0.02-0.371,0.105-0.96,0.256-1.766l0.117-0.623l1.011-3.926h2.461l0.959,3.926
		c0.02,0.107,0.05,0.267,0.092,0.477c0.041,0.21,0.082,0.434,0.121,0.67c0.039,0.237,0.074,0.469,0.106,0.695
		c0.032,0.229,0.05,0.41,0.055,0.547h0.044c0.044-0.352,0.122-0.834,0.234-1.447c0.112-0.612,0.193-1.026,0.242-1.241l0.981-3.626
		h2.19l-2.358,8.189H133.291z"/>
	<path d="M141.633,341.568h-2.234v-11.396h2.234V341.568z"/>
	<path d="M147.683,341.715c-1.318,0-2.349-0.364-3.091-1.092s-1.113-1.758-1.113-3.091c0-1.372,0.343-2.433,1.029-3.183
		c0.686-0.749,1.634-1.124,2.845-1.124c1.157,0,2.058,0.329,2.703,0.989c0.645,0.658,0.967,1.569,0.967,2.731v1.084h-5.281
		c0.024,0.635,0.212,1.13,0.564,1.487c0.352,0.355,0.845,0.534,1.479,0.534c0.493,0,0.959-0.052,1.399-0.153
		c0.439-0.104,0.898-0.267,1.377-0.491v1.729c-0.391,0.195-0.808,0.341-1.252,0.437
		C148.865,341.666,148.323,341.715,147.683,341.715z M147.368,334.814c-0.474,0-0.845,0.15-1.113,0.451s-0.422,0.727-0.461,1.277
		h3.135c-0.01-0.551-0.154-0.977-0.432-1.277S147.842,334.814,147.368,334.814z"/>
	<path d="M155.432,341.715c-0.962,0-1.718-0.374-2.267-1.121c-0.55-0.747-0.824-1.782-0.824-3.105c0-1.343,0.279-2.389,0.839-3.139
		c0.559-0.749,1.329-1.124,2.311-1.124c1.03,0,1.816,0.4,2.358,1.201h0.073c-0.112-0.61-0.168-1.155-0.168-1.634v-2.621h2.241
		v11.396h-1.714l-0.432-1.062h-0.095C157.246,341.312,156.472,341.715,155.432,341.715z M156.216,339.935
		c0.571,0,0.99-0.166,1.256-0.498c0.266-0.332,0.411-0.896,0.436-1.692v-0.241c0-0.879-0.136-1.509-0.406-1.89
		c-0.271-0.381-0.712-0.571-1.322-0.571c-0.498,0-0.885,0.212-1.161,0.634s-0.414,1.036-0.414,1.842s0.139,1.41,0.417,1.812
		S155.698,339.935,156.216,339.935z"/>
	<path d="M169.458,333.379v1.136l-1.282,0.329c0.234,0.367,0.352,0.777,0.352,1.23c0,0.879-0.307,1.564-0.919,2.055
		c-0.613,0.49-1.464,0.736-2.553,0.736l-0.403-0.021l-0.33-0.037c-0.229,0.176-0.344,0.371-0.344,0.586
		c0,0.322,0.41,0.483,1.23,0.483h1.392c0.898,0,1.583,0.192,2.054,0.579c0.471,0.385,0.707,0.951,0.707,1.699
		c0,0.957-0.399,1.699-1.197,2.227c-0.799,0.527-1.945,0.791-3.439,0.791c-1.143,0-2.016-0.199-2.619-0.598
		s-0.904-0.955-0.904-1.674c0-0.492,0.154-0.905,0.461-1.237s0.759-0.569,1.355-0.71c-0.229-0.098-0.43-0.258-0.601-0.48
		c-0.171-0.222-0.256-0.457-0.256-0.707c0-0.312,0.09-0.572,0.271-0.779s0.442-0.412,0.784-0.611
		c-0.43-0.186-0.771-0.484-1.022-0.895s-0.377-0.893-0.377-1.449c0-0.895,0.291-1.585,0.872-2.073s1.411-0.732,2.49-0.732
		c0.229,0,0.501,0.021,0.817,0.062c0.314,0.043,0.516,0.072,0.604,0.092H169.458z M163.137,342.725c0,0.309,0.147,0.55,0.443,0.726
		c0.295,0.176,0.709,0.264,1.241,0.264c0.801,0,1.428-0.11,1.882-0.329c0.454-0.221,0.681-0.521,0.681-0.901
		c0-0.308-0.134-0.521-0.403-0.638s-0.684-0.176-1.245-0.176h-1.157c-0.41,0-0.753,0.097-1.029,0.289
		C163.275,342.152,163.137,342.408,163.137,342.725z M163.95,336.061c0,0.443,0.101,0.795,0.304,1.055
		c0.202,0.258,0.511,0.388,0.926,0.388c0.42,0,0.728-0.13,0.923-0.388c0.195-0.26,0.293-0.611,0.293-1.055
		c0-0.986-0.405-1.48-1.216-1.48C164.36,334.58,163.95,335.074,163.95,336.061z"/>
	<path d="M174.512,341.715c-1.318,0-2.349-0.364-3.091-1.092s-1.113-1.758-1.113-3.091c0-1.372,0.343-2.433,1.029-3.183
		c0.686-0.749,1.634-1.124,2.845-1.124c1.157,0,2.058,0.329,2.703,0.989c0.645,0.658,0.967,1.569,0.967,2.731v1.084h-5.281
		c0.024,0.635,0.212,1.13,0.564,1.487c0.352,0.355,0.845,0.534,1.479,0.534c0.493,0,0.959-0.052,1.399-0.153
		c0.439-0.104,0.898-0.267,1.377-0.491v1.729c-0.391,0.195-0.808,0.341-1.252,0.437
		C175.693,341.666,175.151,341.715,174.512,341.715z M174.197,334.814c-0.474,0-0.845,0.15-1.113,0.451s-0.422,0.727-0.461,1.277
		h3.135c-0.01-0.551-0.154-0.977-0.432-1.277S174.67,334.814,174.197,334.814z"/>
	<path d="M187.805,335.555h4.248v5.552c-0.688,0.225-1.336,0.382-1.945,0.472c-0.607,0.091-1.229,0.137-1.864,0.137
		c-1.616,0-2.851-0.475-3.703-1.426c-0.852-0.949-1.278-2.312-1.278-4.09c0-1.729,0.495-3.076,1.483-4.043
		c0.989-0.967,2.36-1.45,4.113-1.45c1.099,0,2.158,0.22,3.179,0.659l-0.754,1.816c-0.781-0.391-1.594-0.586-2.439-0.586
		c-0.981,0-1.768,0.33-2.358,0.988c-0.591,0.66-0.886,1.546-0.886,2.659c0,1.162,0.238,2.05,0.714,2.663
		c0.477,0.612,1.168,0.918,2.077,0.918c0.474,0,0.955-0.049,1.443-0.146v-2.233h-2.029V335.555z"/>
	<path d="M198.997,333.226c0.303,0,0.554,0.022,0.754,0.065l-0.168,2.096c-0.181-0.049-0.4-0.074-0.659-0.074
		c-0.713,0-1.269,0.184-1.666,0.55c-0.398,0.366-0.597,0.879-0.597,1.538v4.168h-2.234v-8.189h1.692l0.33,1.377h0.11
		c0.254-0.459,0.597-0.828,1.029-1.109C198.019,333.366,198.489,333.226,198.997,333.226z"/>
	<path d="M206.438,341.568l-0.432-1.113h-0.059c-0.376,0.473-0.763,0.801-1.161,0.984c-0.398,0.184-0.917,0.275-1.557,0.275
		c-0.786,0-1.405-0.225-1.856-0.674c-0.452-0.449-0.678-1.09-0.678-1.92c0-0.869,0.304-1.51,0.912-1.922
		c0.607-0.412,1.524-0.641,2.75-0.686l1.421-0.043v-0.359c0-0.83-0.425-1.245-1.274-1.245c-0.654,0-1.423,0.198-2.307,0.593
		l-0.74-1.508c0.942-0.494,1.987-0.74,3.135-0.74c1.099,0,1.941,0.239,2.527,0.718s0.879,1.206,0.879,2.183v5.457H206.438z
		 M205.779,337.773l-0.864,0.029c-0.649,0.02-1.133,0.137-1.45,0.352s-0.476,0.543-0.476,0.982c0,0.629,0.361,0.944,1.084,0.944
		c0.518,0,0.931-0.149,1.242-0.446c0.31-0.299,0.465-0.693,0.465-1.188V337.773z"/>
	<path d="M214.795,341.715c-0.962,0-1.716-0.35-2.263-1.048h-0.117c0.078,0.684,0.117,1.079,0.117,1.187v3.318h-2.234v-11.793h1.816
		l0.315,1.062h0.103c0.522-0.811,1.296-1.216,2.322-1.216c0.967,0,1.724,0.374,2.271,1.12c0.547,0.748,0.82,1.785,0.82,3.113
		c0,0.874-0.128,1.633-0.385,2.277c-0.256,0.645-0.621,1.136-1.095,1.473S215.435,341.715,214.795,341.715z M214.136,335.013
		c-0.552,0-0.955,0.17-1.208,0.509c-0.254,0.34-0.386,0.9-0.396,1.682v0.241c0,0.879,0.13,1.509,0.392,1.89
		c0.261,0.381,0.675,0.571,1.241,0.571c1.001,0,1.501-0.825,1.501-2.476c0-0.806-0.124-1.41-0.37-1.812
		C215.05,335.215,214.663,335.013,214.136,335.013z"/>
	<path d="M227.349,341.568h-2.234v-4.783c0-1.182-0.439-1.772-1.318-1.772c-0.625,0-1.077,0.212-1.355,0.638
		c-0.278,0.424-0.417,1.113-0.417,2.064v3.854h-2.234v-11.396h2.234v2.321c0,0.181-0.017,0.605-0.051,1.274l-0.051,0.659h0.117
		c0.498-0.801,1.289-1.201,2.373-1.201c0.962,0,1.692,0.259,2.19,0.776s0.747,1.26,0.747,2.227V341.568z"/>
</g>
<rect x="210.342" fill="#008837" width="106.433" height="100"/>
<g>
	<path d="M228.714,53.258l-0.776-2.549h-3.904l-0.776,2.549h-2.446l3.779-10.752h2.776l3.794,10.752H228.714z M227.396,48.805
		c-0.718-2.31-1.122-3.616-1.212-3.918s-0.155-0.542-0.194-0.718c-0.161,0.625-0.623,2.17-1.384,4.636H227.396z"/>
	<path d="M236.829,53.404c-0.962,0-1.716-0.349-2.263-1.047h-0.117c0.078,0.684,0.117,1.079,0.117,1.187v3.318h-2.234V45.069h1.816
		l0.315,1.062h0.103c0.522-0.811,1.296-1.216,2.322-1.216c0.967,0,1.724,0.374,2.271,1.121s0.82,1.785,0.82,3.113
		c0,0.874-0.128,1.633-0.385,2.278c-0.256,0.645-0.621,1.135-1.095,1.472S237.469,53.404,236.829,53.404z M236.17,46.703
		c-0.552,0-0.955,0.17-1.208,0.509s-0.386,0.899-0.396,1.681v0.242c0,0.879,0.13,1.509,0.392,1.89
		c0.261,0.381,0.675,0.571,1.241,0.571c1.001,0,1.501-0.825,1.501-2.476c0-0.806-0.124-1.41-0.37-1.813
		C237.084,46.904,236.697,46.703,236.17,46.703z"/>
	<path d="M246.321,53.404c-0.962,0-1.716-0.349-2.263-1.047h-0.117c0.078,0.684,0.117,1.079,0.117,1.187v3.318h-2.234V45.069h1.816
		l0.315,1.062h0.103c0.522-0.811,1.296-1.216,2.322-1.216c0.967,0,1.724,0.374,2.271,1.121s0.82,1.785,0.82,3.113
		c0,0.874-0.128,1.633-0.385,2.278c-0.256,0.645-0.621,1.135-1.095,1.472S246.961,53.404,246.321,53.404z M245.662,46.703
		c-0.552,0-0.955,0.17-1.208,0.509s-0.386,0.899-0.396,1.681v0.242c0,0.879,0.13,1.509,0.392,1.89
		c0.261,0.381,0.675,0.571,1.241,0.571c1.001,0,1.501-0.825,1.501-2.476c0-0.806-0.124-1.41-0.37-1.813
		C246.576,46.904,246.189,46.703,245.662,46.703z"/>
	<path d="M253.55,53.258h-2.234V41.861h2.234V53.258z"/>
	<path d="M255.799,42.953c0-0.728,0.405-1.091,1.216-1.091s1.216,0.364,1.216,1.091c0,0.347-0.102,0.617-0.304,0.809
		c-0.203,0.193-0.506,0.29-0.912,0.29C256.204,44.051,255.799,43.685,255.799,42.953z M258.128,53.258h-2.234v-8.188h2.234V53.258z"
		/>
	<path d="M263.797,53.404c-2.549,0-3.823-1.399-3.823-4.197c0-1.392,0.347-2.455,1.04-3.19c0.693-0.734,1.687-1.102,2.981-1.102
		c0.947,0,1.797,0.186,2.549,0.557l-0.659,1.729c-0.352-0.142-0.679-0.257-0.981-0.348c-0.303-0.09-0.605-0.135-0.908-0.135
		c-1.162,0-1.743,0.825-1.743,2.476c0,1.602,0.581,2.402,1.743,2.402c0.43,0,0.828-0.057,1.194-0.172
		c0.366-0.114,0.732-0.294,1.099-0.538v1.912c-0.361,0.229-0.727,0.388-1.095,0.476C264.823,53.36,264.358,53.404,263.797,53.404z"
		/>
	<path d="M273.384,53.258l-0.432-1.113h-0.059c-0.376,0.474-0.763,0.802-1.161,0.985c-0.398,0.183-0.917,0.274-1.557,0.274
		c-0.786,0-1.405-0.225-1.856-0.674c-0.452-0.449-0.678-1.089-0.678-1.919c0-0.869,0.304-1.51,0.912-1.923
		c0.607-0.412,1.524-0.641,2.75-0.685l1.421-0.044v-0.359c0-0.83-0.425-1.245-1.274-1.245c-0.654,0-1.423,0.198-2.307,0.593
		l-0.74-1.509c0.942-0.493,1.987-0.74,3.135-0.74c1.099,0,1.941,0.239,2.527,0.718s0.879,1.206,0.879,2.183v5.457H273.384z
		 M272.725,49.464l-0.864,0.029c-0.649,0.02-1.133,0.137-1.45,0.352s-0.476,0.542-0.476,0.981c0,0.63,0.361,0.945,1.084,0.945
		c0.518,0,0.931-0.149,1.242-0.447c0.31-0.298,0.465-0.693,0.465-1.187V49.464z"/>
	<path d="M280.694,51.625c0.391,0,0.859-0.085,1.406-0.256v1.663c-0.557,0.249-1.24,0.374-2.051,0.374
		c-0.894,0-1.544-0.226-1.952-0.678c-0.408-0.451-0.612-1.129-0.612-2.032v-3.948h-1.069v-0.945l1.23-0.747l0.645-1.729h1.428v1.743
		h2.292v1.677h-2.292v3.948c0,0.317,0.089,0.552,0.268,0.703C280.165,51.549,280.401,51.625,280.694,51.625z"/>
	<path d="M283.66,42.953c0-0.728,0.405-1.091,1.216-1.091s1.216,0.364,1.216,1.091c0,0.347-0.102,0.617-0.304,0.809
		c-0.203,0.193-0.506,0.29-0.912,0.29C284.065,44.051,283.66,43.685,283.66,42.953z M285.989,53.258h-2.234v-8.188h2.234V53.258z"/>
	<path d="M295.774,49.149c0,1.333-0.352,2.375-1.055,3.127s-1.682,1.128-2.937,1.128c-0.786,0-1.479-0.172-2.08-0.517
		c-0.601-0.344-1.062-0.838-1.384-1.483s-0.483-1.396-0.483-2.256c0-1.338,0.349-2.378,1.047-3.12s1.68-1.113,2.944-1.113
		c0.786,0,1.479,0.171,2.08,0.513s1.062,0.833,1.384,1.472S295.774,48.29,295.774,49.149z M290.113,49.149
		c0,0.811,0.133,1.423,0.399,1.838s0.7,0.623,1.3,0.623c0.596,0,1.024-0.206,1.286-0.619c0.261-0.413,0.392-1.027,0.392-1.842
		c0-0.811-0.132-1.418-0.396-1.824s-0.696-0.608-1.296-0.608c-0.596,0-1.025,0.202-1.289,0.604
		C290.245,47.725,290.113,48.333,290.113,49.149z"/>
	<path d="M305.179,53.258h-2.234v-4.783c0-0.591-0.105-1.034-0.315-1.33c-0.21-0.295-0.544-0.443-1.003-0.443
		c-0.625,0-1.077,0.208-1.355,0.626c-0.278,0.417-0.417,1.109-0.417,2.076v3.853h-2.234v-8.188h1.707l0.3,1.047h0.125
		c0.249-0.396,0.592-0.694,1.029-0.897s0.934-0.304,1.491-0.304c0.952,0,1.675,0.258,2.168,0.773s0.74,1.258,0.74,2.23V53.258z"/>
</g>
<line fill="none" stroke="#000000" stroke-width="2" stroke-miterlimit="10" x1="117.687" y1="226.807" x2="117.687" y2="192.596"/>
<rect x="337.988" y="212.914" fill="#2E58A6" width="35.362" height="33.227"/>
<rect x="396.468" y="282.752" fill="#2E58A6" width="35.362" height="33.227"/>
<rect x="452.805" y="212.914" fill="#2E58A6" width="35.362" height="33.227"/>
<rect x="454.947" y="268.248" fill="#2E58A6" width="35.362" height="33.225"/>
<rect x="337.988" y="268.248" fill="#2E58A6" width="35.362" height="33.225"/>
<rect x="396.468" y="212.914" fill="#2E58A6" width="35.362" height="33.227"/>
<rect x="320.307" y="310.193" fill="#2E58A6" width="35.362" height="33.227"/>
<rect x="472.628" y="310.193" fill="#2E58A6" width="35.362" height="33.227"/>
<line fill="none" stroke="#000000" stroke-width="2" stroke-miterlimit="10" x1="414.148" y1="192.467" x2="414.148" y2="212.914"/>
<line fill="none" stroke="#808080" stroke-miterlimit="10" x1="337.988" y1="310.193" x2="355.67" y2="301.473"/>
<line fill="none" stroke="#808080" stroke-miterlimit="10" x1="431.83" y1="299.365" x2="472.629" y2="328.969"/>
<line fill="none" stroke="#808080" stroke-miterlimit="10" x1="396.468" y1="299.365" x2="373.351" y2="284.859"/>
<line fill="none" stroke="#808080" stroke-miterlimit="10" x1="431.83" y1="245.469" x2="454.947" y2="284.859"/>
<line fill="none" stroke="#808080" stroke-miterlimit="10" x1="373.351" y1="229.527" x2="396.468" y2="229.527"/>
<line fill="none" stroke="#808080" stroke-miterlimit="10" x1="452.805" y1="229.527" x2="431.83" y2="229.527"/>
<line fill="none" stroke="#808080" stroke-miterlimit="10" x1="472.628" y1="301.473" x2="490.31" y2="310.193"/>
<g>
	<path d="M304.53,256.111c0,1.763-0.501,3.113-1.505,4.051c-1.003,0.938-2.452,1.406-4.347,1.406h-3.032v-10.709h3.362
		c1.748,0,3.105,0.462,4.072,1.385S304.53,254.456,304.53,256.111z M302.172,256.17c0-2.3-1.016-3.449-3.047-3.449h-1.208v6.973
		h0.974C301.078,259.693,302.172,258.519,302.172,256.17z"/>
	<path d="M310.28,261.715c-1.318,0-2.349-0.364-3.091-1.092s-1.113-1.758-1.113-3.091c0-1.372,0.343-2.433,1.029-3.183
		c0.686-0.749,1.634-1.124,2.845-1.124c1.157,0,2.058,0.329,2.703,0.989c0.645,0.658,0.967,1.569,0.967,2.731v1.084h-5.281
		c0.024,0.635,0.212,1.13,0.564,1.487c0.352,0.355,0.845,0.534,1.479,0.534c0.493,0,0.959-0.052,1.399-0.153
		c0.439-0.104,0.898-0.267,1.377-0.491v1.729c-0.391,0.195-0.808,0.341-1.252,0.437C311.461,261.666,310.919,261.715,310.28,261.715
		z M309.965,254.814c-0.474,0-0.845,0.15-1.113,0.451s-0.422,0.727-0.461,1.277h3.135c-0.01-0.551-0.154-0.977-0.432-1.277
		S310.438,254.814,309.965,254.814z"/>
	<path d="M318.761,261.715c-2.549,0-3.823-1.399-3.823-4.197c0-1.392,0.347-2.455,1.04-3.189s1.687-1.103,2.981-1.103
		c0.947,0,1.797,0.186,2.549,0.557l-0.659,1.729c-0.352-0.142-0.679-0.257-0.981-0.349c-0.303-0.09-0.605-0.135-0.908-0.135
		c-1.162,0-1.743,0.825-1.743,2.476c0,1.602,0.581,2.402,1.743,2.402c0.43,0,0.828-0.058,1.194-0.173
		c0.366-0.113,0.732-0.293,1.099-0.537v1.911c-0.361,0.229-0.727,0.388-1.095,0.476C319.788,261.67,319.323,261.715,318.761,261.715
		z"/>
	<path d="M326.854,261.715c-1.318,0-2.349-0.364-3.091-1.092s-1.113-1.758-1.113-3.091c0-1.372,0.343-2.433,1.029-3.183
		c0.686-0.749,1.634-1.124,2.845-1.124c1.157,0,2.058,0.329,2.703,0.989c0.645,0.658,0.967,1.569,0.967,2.731v1.084h-5.281
		c0.024,0.635,0.212,1.13,0.564,1.487c0.352,0.355,0.845,0.534,1.479,0.534c0.493,0,0.959-0.052,1.399-0.153
		c0.439-0.104,0.898-0.267,1.377-0.491v1.729c-0.391,0.195-0.808,0.341-1.252,0.437
		C328.036,261.666,327.494,261.715,326.854,261.715z M326.54,254.814c-0.474,0-0.845,0.15-1.113,0.451s-0.422,0.727-0.461,1.277
		h3.135c-0.01-0.551-0.154-0.977-0.432-1.277S327.013,254.814,326.54,254.814z"/>
	<path d="M339.569,261.568h-2.234v-4.783c0-0.591-0.105-1.033-0.315-1.33c-0.21-0.295-0.544-0.442-1.003-0.442
		c-0.625,0-1.077,0.208-1.355,0.626s-0.417,1.109-0.417,2.076v3.854h-2.234v-8.189h1.707l0.3,1.048h0.125
		c0.249-0.396,0.592-0.694,1.029-0.897c0.437-0.202,0.934-0.304,1.491-0.304c0.952,0,1.675,0.258,2.168,0.772
		c0.493,0.516,0.74,1.259,0.74,2.23V261.568z"/>
	<path d="M345.319,259.935c0.391,0,0.859-0.085,1.406-0.257v1.663c-0.557,0.249-1.24,0.374-2.051,0.374
		c-0.894,0-1.544-0.227-1.952-0.678c-0.408-0.451-0.612-1.129-0.612-2.033v-3.947h-1.069v-0.945l1.23-0.746l0.645-1.729h1.428v1.742
		h2.292v1.678h-2.292v3.947c0,0.318,0.089,0.553,0.268,0.703C344.79,259.859,345.026,259.935,345.319,259.935z"/>
	<path d="M352.951,253.226c0.303,0,0.554,0.022,0.754,0.065l-0.168,2.096c-0.181-0.049-0.4-0.074-0.659-0.074
		c-0.713,0-1.269,0.184-1.666,0.55c-0.398,0.366-0.597,0.879-0.597,1.538v4.168h-2.234v-8.189h1.692l0.33,1.377h0.11
		c0.254-0.459,0.597-0.828,1.029-1.109C351.973,253.366,352.443,253.226,352.951,253.226z"/>
	<path d="M360.392,261.568l-0.432-1.113h-0.059c-0.376,0.473-0.763,0.801-1.161,0.984c-0.398,0.184-0.917,0.275-1.557,0.275
		c-0.786,0-1.405-0.225-1.856-0.674c-0.452-0.449-0.678-1.09-0.678-1.92c0-0.869,0.304-1.51,0.912-1.922
		c0.607-0.412,1.524-0.641,2.75-0.686l1.421-0.043v-0.359c0-0.83-0.425-1.245-1.274-1.245c-0.654,0-1.423,0.198-2.307,0.593
		l-0.74-1.508c0.942-0.494,1.987-0.74,3.135-0.74c1.099,0,1.941,0.239,2.527,0.718s0.879,1.206,0.879,2.183v5.457H360.392z
		 M359.733,257.773l-0.864,0.029c-0.649,0.02-1.133,0.137-1.45,0.352s-0.476,0.543-0.476,0.982c0,0.629,0.361,0.944,1.084,0.944
		c0.518,0,0.931-0.149,1.242-0.446c0.31-0.299,0.465-0.693,0.465-1.188V257.773z"/>
	<path d="M366.486,261.568h-2.234v-11.396h2.234V261.568z"/>
	<path d="M368.734,251.263c0-0.728,0.405-1.091,1.216-1.091s1.216,0.363,1.216,1.091c0,0.347-0.102,0.616-0.304,0.81
		s-0.506,0.289-0.912,0.289C369.14,252.361,368.734,251.995,368.734,251.263z M371.063,261.568h-2.234v-8.189h2.234V261.568z"/>
	<path d="M379.105,261.568h-6.467v-1.318l3.794-5.164h-3.567v-1.707h6.108v1.451l-3.691,5.031h3.823V261.568z"/>
	<path d="M384.43,261.715c-1.318,0-2.349-0.364-3.091-1.092s-1.113-1.758-1.113-3.091c0-1.372,0.343-2.433,1.029-3.183
		c0.686-0.749,1.634-1.124,2.845-1.124c1.157,0,2.058,0.329,2.703,0.989c0.645,0.658,0.967,1.569,0.967,2.731v1.084h-5.281
		c0.024,0.635,0.212,1.13,0.564,1.487c0.352,0.355,0.845,0.534,1.479,0.534c0.493,0,0.959-0.052,1.399-0.153
		c0.439-0.104,0.898-0.267,1.377-0.491v1.729c-0.391,0.195-0.808,0.341-1.252,0.437C385.612,261.666,385.07,261.715,384.43,261.715z
		 M384.115,254.814c-0.474,0-0.845,0.15-1.113,0.451s-0.422,0.727-0.461,1.277h3.135c-0.01-0.551-0.154-0.977-0.432-1.277
		S384.589,254.814,384.115,254.814z"/>
	<path d="M392.179,261.715c-0.962,0-1.718-0.374-2.267-1.121c-0.55-0.747-0.824-1.782-0.824-3.105c0-1.343,0.279-2.389,0.839-3.139
		c0.559-0.749,1.329-1.124,2.311-1.124c1.03,0,1.816,0.4,2.358,1.201h0.073c-0.112-0.61-0.168-1.155-0.168-1.634v-2.621h2.241
		v11.396h-1.714l-0.432-1.062h-0.095C393.993,261.312,393.219,261.715,392.179,261.715z M392.963,259.935
		c0.571,0,0.99-0.166,1.256-0.498c0.266-0.332,0.411-0.896,0.436-1.692v-0.241c0-0.879-0.136-1.509-0.406-1.89
		c-0.271-0.381-0.712-0.571-1.322-0.571c-0.498,0-0.885,0.212-1.161,0.634s-0.414,1.036-0.414,1.842s0.139,1.41,0.417,1.812
		S392.445,259.935,392.963,259.935z"/>
	<path d="M411.764,261.568h-2.578l-2.805-4.512l-0.959,0.688v3.824h-2.271v-10.709h2.271v4.9l0.893-1.26l2.9-3.641h2.52L408,255.599
		L411.764,261.568z"/>
	<path d="M420.494,261.568h-2.233v-4.783c0-0.591-0.104-1.033-0.315-1.33c-0.209-0.295-0.544-0.442-1.003-0.442
		c-0.625,0-1.077,0.208-1.354,0.626c-0.279,0.418-0.418,1.109-0.418,2.076v3.854h-2.234v-8.189h1.707l0.301,1.048h0.124
		c0.249-0.396,0.592-0.694,1.028-0.897c0.438-0.202,0.935-0.304,1.491-0.304c0.952,0,1.675,0.258,2.168,0.772
		c0.493,0.516,0.739,1.259,0.739,2.23V261.568z"/>
	<path d="M430.236,257.459c0,1.333-0.352,2.375-1.055,3.127s-1.683,1.129-2.938,1.129c-0.786,0-1.479-0.172-2.08-0.518
		c-0.601-0.344-1.062-0.838-1.385-1.482s-0.482-1.396-0.482-2.256c0-1.338,0.349-2.378,1.047-3.12s1.68-1.113,2.944-1.113
		c0.786,0,1.479,0.171,2.08,0.513s1.062,0.832,1.384,1.473C430.074,255.85,430.236,256.6,430.236,257.459z M424.574,257.459
		c0,0.811,0.133,1.424,0.398,1.838c0.267,0.416,0.7,0.623,1.301,0.623c0.596,0,1.023-0.206,1.285-0.619
		c0.262-0.412,0.393-1.026,0.393-1.842c0-0.811-0.133-1.418-0.396-1.824c-0.264-0.404-0.695-0.607-1.296-0.607
		c-0.596,0-1.025,0.201-1.289,0.604C424.706,256.035,424.574,256.644,424.574,257.459z"/>
	<path d="M438.812,261.568l-0.63-2.864l-0.85-3.618h-0.052l-1.494,6.482h-2.402l-2.328-8.189h2.227l0.944,3.626
		c0.151,0.649,0.306,1.546,0.462,2.688h0.043c0.02-0.371,0.105-0.96,0.257-1.766l0.117-0.623l1.011-3.926h2.461l0.959,3.926
		c0.02,0.107,0.051,0.267,0.092,0.477s0.082,0.434,0.121,0.67c0.039,0.237,0.074,0.469,0.105,0.695
		c0.032,0.229,0.051,0.41,0.056,0.547h0.044c0.044-0.352,0.122-0.834,0.234-1.447c0.112-0.612,0.193-1.026,0.242-1.241l0.98-3.626
		h2.19l-2.358,8.189H438.812z"/>
	<path d="M447.154,261.568h-2.233v-11.396h2.233V261.568z"/>
	<path d="M453.205,261.715c-1.318,0-2.35-0.364-3.092-1.092S449,258.865,449,257.532c0-1.372,0.344-2.433,1.029-3.183
		c0.686-0.749,1.635-1.124,2.846-1.124c1.157,0,2.059,0.329,2.703,0.989c0.645,0.658,0.967,1.569,0.967,2.731v1.084h-5.281
		c0.024,0.635,0.213,1.13,0.564,1.487c0.352,0.355,0.844,0.534,1.479,0.534c0.494,0,0.96-0.052,1.399-0.153
		c0.439-0.104,0.898-0.267,1.377-0.491v1.729c-0.391,0.195-0.808,0.341-1.253,0.437
		C454.387,261.666,453.844,261.715,453.205,261.715z M452.89,254.814c-0.474,0-0.845,0.15-1.113,0.451s-0.423,0.727-0.462,1.277
		h3.135c-0.01-0.551-0.153-0.977-0.432-1.277S453.363,254.814,452.89,254.814z"/>
	<path d="M460.953,261.715c-0.961,0-1.717-0.374-2.266-1.121c-0.551-0.747-0.824-1.782-0.824-3.105c0-1.343,0.279-2.389,0.838-3.139
		c0.559-0.749,1.33-1.124,2.311-1.124c1.031,0,1.816,0.4,2.359,1.201h0.072c-0.111-0.61-0.168-1.155-0.168-1.634v-2.621h2.241
		v11.396h-1.714l-0.432-1.062h-0.096C462.768,261.312,461.994,261.715,460.953,261.715z M461.737,259.935
		c0.571,0,0.989-0.166,1.257-0.498c0.266-0.332,0.41-0.896,0.436-1.692v-0.241c0-0.879-0.137-1.509-0.406-1.89
		c-0.271-0.381-0.713-0.571-1.322-0.571c-0.498,0-0.886,0.212-1.162,0.634c-0.275,0.422-0.413,1.036-0.413,1.842
		s0.14,1.41,0.417,1.812C460.822,259.732,461.22,259.935,461.737,259.935z"/>
	<path d="M474.979,253.379v1.136l-1.282,0.329c0.234,0.367,0.352,0.777,0.352,1.23c0,0.879-0.307,1.564-0.918,2.055
		c-0.613,0.49-1.465,0.736-2.553,0.736l-0.403-0.021l-0.329-0.037c-0.23,0.176-0.345,0.371-0.345,0.586
		c0,0.322,0.41,0.483,1.23,0.483h1.392c0.898,0,1.583,0.192,2.055,0.579c0.471,0.385,0.707,0.951,0.707,1.699
		c0,0.957-0.4,1.699-1.197,2.227c-0.799,0.527-1.945,0.791-3.439,0.791c-1.143,0-2.016-0.199-2.619-0.598
		c-0.603-0.398-0.904-0.955-0.904-1.674c0-0.492,0.154-0.905,0.462-1.237s0.759-0.569,1.354-0.71c-0.229-0.098-0.43-0.258-0.6-0.48
		c-0.172-0.222-0.257-0.457-0.257-0.707c0-0.312,0.091-0.572,0.271-0.779c0.182-0.207,0.442-0.412,0.784-0.611
		c-0.43-0.186-0.771-0.484-1.022-0.895c-0.251-0.41-0.377-0.893-0.377-1.449c0-0.895,0.291-1.585,0.872-2.073
		s1.411-0.732,2.49-0.732c0.229,0,0.501,0.021,0.817,0.062c0.314,0.043,0.516,0.072,0.604,0.092H474.979z M468.658,262.725
		c0,0.309,0.148,0.55,0.443,0.726s0.709,0.264,1.242,0.264c0.801,0,1.428-0.11,1.882-0.329c0.454-0.221,0.681-0.521,0.681-0.901
		c0-0.308-0.134-0.521-0.402-0.638s-0.684-0.176-1.245-0.176h-1.157c-0.41,0-0.754,0.097-1.029,0.289
		C468.797,262.152,468.658,262.408,468.658,262.725z M469.472,256.061c0,0.443,0.101,0.795,0.304,1.055
		c0.203,0.258,0.512,0.388,0.927,0.388c0.42,0,0.728-0.13,0.923-0.388c0.195-0.26,0.293-0.611,0.293-1.055
		c0-0.986-0.405-1.48-1.216-1.48C469.882,254.58,469.472,255.074,469.472,256.061z"/>
	<path d="M480.033,261.715c-1.318,0-2.349-0.364-3.091-1.092s-1.113-1.758-1.113-3.091c0-1.372,0.343-2.433,1.029-3.183
		c0.686-0.749,1.634-1.124,2.845-1.124c1.158,0,2.059,0.329,2.703,0.989c0.645,0.658,0.967,1.569,0.967,2.731v1.084h-5.281
		c0.025,0.635,0.213,1.13,0.564,1.487c0.352,0.355,0.845,0.534,1.479,0.534c0.493,0,0.96-0.052,1.399-0.153
		c0.439-0.104,0.898-0.267,1.377-0.491v1.729c-0.391,0.195-0.809,0.341-1.253,0.437
		C481.215,261.666,480.673,261.715,480.033,261.715z M479.719,254.814c-0.475,0-0.846,0.15-1.113,0.451
		c-0.27,0.301-0.423,0.727-0.462,1.277h3.135c-0.01-0.551-0.153-0.977-0.433-1.277C480.568,254.965,480.191,254.814,479.719,254.814
		z"/>
	<path d="M493.326,255.555h4.248v5.552c-0.688,0.225-1.336,0.382-1.944,0.472c-0.607,0.091-1.229,0.137-1.864,0.137
		c-1.615,0-2.85-0.475-3.702-1.426c-0.853-0.949-1.278-2.312-1.278-4.09c0-1.729,0.495-3.076,1.483-4.043
		c0.989-0.967,2.36-1.45,4.112-1.45c1.1,0,2.158,0.22,3.18,0.659l-0.755,1.816c-0.781-0.391-1.595-0.586-2.438-0.586
		c-0.982,0-1.768,0.33-2.359,0.988c-0.59,0.66-0.886,1.546-0.886,2.659c0,1.162,0.238,2.05,0.714,2.663
		c0.477,0.612,1.168,0.918,2.076,0.918c0.475,0,0.955-0.049,1.443-0.146v-2.233h-2.029V255.555z"/>
	<path d="M504.518,253.226c0.303,0,0.555,0.022,0.755,0.065l-0.169,2.096c-0.18-0.049-0.4-0.074-0.658-0.074
		c-0.713,0-1.27,0.184-1.666,0.55c-0.398,0.366-0.598,0.879-0.598,1.538v4.168h-2.234v-8.189h1.692l0.329,1.377h0.11
		c0.254-0.459,0.597-0.828,1.028-1.109C503.541,253.366,504.01,253.226,504.518,253.226z"/>
	<path d="M511.959,261.568l-0.432-1.113h-0.059c-0.376,0.473-0.764,0.801-1.16,0.984c-0.398,0.184-0.918,0.275-1.557,0.275
		c-0.787,0-1.406-0.225-1.857-0.674s-0.678-1.09-0.678-1.92c0-0.869,0.305-1.51,0.912-1.922s1.525-0.641,2.75-0.686l1.422-0.043
		v-0.359c0-0.83-0.426-1.245-1.275-1.245c-0.654,0-1.423,0.198-2.307,0.593l-0.74-1.508c0.943-0.494,1.988-0.74,3.135-0.74
		c1.1,0,1.941,0.239,2.527,0.718s0.879,1.206,0.879,2.183v5.457H511.959z M511.301,257.773l-0.865,0.029
		c-0.648,0.02-1.133,0.137-1.449,0.352c-0.318,0.215-0.477,0.543-0.477,0.982c0,0.629,0.361,0.944,1.084,0.944
		c0.518,0,0.932-0.149,1.242-0.446c0.309-0.299,0.465-0.693,0.465-1.188V257.773z"/>
	<path d="M520.316,261.715c-0.962,0-1.717-0.35-2.264-1.048h-0.117c0.078,0.684,0.117,1.079,0.117,1.187v3.318h-2.233v-11.793h1.816
		l0.315,1.062h0.102c0.523-0.811,1.297-1.216,2.322-1.216c0.967,0,1.724,0.374,2.271,1.12c0.547,0.748,0.82,1.785,0.82,3.113
		c0,0.874-0.128,1.633-0.385,2.277c-0.256,0.645-0.621,1.136-1.095,1.473S520.956,261.715,520.316,261.715z M519.657,255.013
		c-0.552,0-0.954,0.17-1.208,0.509c-0.254,0.34-0.387,0.9-0.396,1.682v0.241c0,0.879,0.131,1.509,0.393,1.89
		c0.261,0.381,0.675,0.571,1.241,0.571c1.001,0,1.501-0.825,1.501-2.476c0-0.806-0.123-1.41-0.369-1.812
		C520.571,255.215,520.185,255.013,519.657,255.013z"/>
	<path d="M532.87,261.568h-2.233v-4.783c0-1.182-0.439-1.772-1.318-1.772c-0.625,0-1.077,0.212-1.355,0.638
		c-0.278,0.424-0.418,1.113-0.418,2.064v3.854h-2.233v-11.396h2.233v2.321c0,0.181-0.017,0.605-0.051,1.274l-0.051,0.659h0.117
		c0.498-0.801,1.289-1.201,2.373-1.201c0.961,0,1.691,0.259,2.189,0.776s0.747,1.26,0.747,2.227V261.568z"/>
</g>
<line fill="none" stroke="#808080" stroke-miterlimit="10" x1="454.947" y1="284.859" x2="431.83" y2="299.365"/>
<g>
	<g>
		<line fill="none" stroke="#000000" stroke-miterlimit="10" x1="263.559" y1="100" x2="269.216" y2="101.998"/>
		
			<line fill="none" stroke="#000000" stroke-miterlimit="10" stroke-dasharray="11.5534,11.5534" x1="280.11" y1="105.844" x2="405.396" y2="150.079"/>
		<line fill="none" stroke="#000000" stroke-miterlimit="10" x1="410.842" y1="152.002" x2="416.5" y2="154"/>
	</g>
</g>
<g>
	<path fill="#333333" d="M192.678,148.114l-0.108,0.013h-0.102c-1.083,0-1.928-0.316-2.533-0.949
		c-0.605-0.632-0.908-1.52-0.908-2.663c0-1.117,0.203-2.137,0.609-3.06s0.964-1.633,1.673-2.133c0.708-0.5,1.507-0.749,2.396-0.749
		c1.033,0,1.845,0.326,2.438,0.978s0.889,1.549,0.889,2.691c0,1.409-0.294,2.628-0.882,3.656s-1.382,1.708-2.38,2.038l1.739,2.272
		h-1.39L192.678,148.114z M193.624,139.538c-0.665,0-1.259,0.214-1.784,0.641s-0.932,1.022-1.222,1.784
		c-0.29,0.762-0.435,1.604-0.435,2.526c0,0.842,0.208,1.499,0.622,1.971c0.415,0.472,0.978,0.708,1.688,0.708
		c0.668,0,1.259-0.211,1.771-0.635s0.909-1.017,1.19-1.781c0.282-0.764,0.422-1.609,0.422-2.536c0-0.842-0.199-1.499-0.597-1.971
		C194.882,139.774,194.33,139.538,193.624,139.538z"/>
	<path fill="#333333" d="M200.301,141.042l-0.952,4.412c-0.076,0.376-0.114,0.671-0.114,0.882c0,0.605,0.311,0.908,0.933,0.908
		c0.373,0,0.738-0.127,1.098-0.381s0.677-0.618,0.952-1.092s0.484-1.045,0.628-1.714l0.635-3.015h1.054L203.069,148h-0.882
		l0.14-1.289h-0.076c-0.415,0.529-0.811,0.897-1.187,1.104s-0.766,0.311-1.168,0.311c-0.542,0-0.967-0.147-1.276-0.441
		c-0.309-0.294-0.463-0.714-0.463-1.26c0-0.262,0.046-0.626,0.14-1.092l0.927-4.291H200.301z"/>
	<path fill="#333333" d="M208.064,148.126c-0.779,0-1.39-0.23-1.834-0.692s-0.667-1.1-0.667-1.917c0-0.795,0.158-1.558,0.473-2.289
		c0.315-0.729,0.733-1.298,1.254-1.704s1.094-0.609,1.72-0.609c0.647,0,1.134,0.141,1.46,0.422c0.326,0.282,0.489,0.674,0.489,1.178
		c0,0.762-0.351,1.359-1.054,1.793c-0.703,0.434-1.708,0.651-3.015,0.651h-0.209l-0.025,0.508c0,0.554,0.13,0.987,0.391,1.298
		c0.26,0.311,0.663,0.466,1.209,0.466c0.267,0,0.541-0.038,0.822-0.114c0.281-0.076,0.631-0.216,1.05-0.419v0.927
		c-0.398,0.186-0.749,0.316-1.054,0.39C208.769,148.089,208.433,148.126,208.064,148.126z M208.947,141.823
		c-0.436,0-0.845,0.199-1.228,0.597c-0.383,0.398-0.676,0.95-0.879,1.657h0.076c0.965,0,1.705-0.126,2.218-0.378
		c0.515-0.251,0.771-0.617,0.771-1.095c0-0.224-0.077-0.411-0.231-0.559C209.519,141.897,209.277,141.823,208.947,141.823z"/>
	<path fill="#333333" d="M216.126,140.916c0.292,0,0.546,0.03,0.762,0.089l-0.229,0.952c-0.224-0.055-0.446-0.083-0.667-0.083
		c-0.385,0-0.746,0.127-1.083,0.381c-0.336,0.254-0.63,0.606-0.882,1.057c-0.252,0.45-0.437,0.951-0.556,1.501L212.793,148h-1.066
		l1.485-6.957h0.882l-0.14,1.289h0.063c0.305-0.402,0.557-0.691,0.755-0.867c0.199-0.175,0.407-0.311,0.625-0.406
		C215.617,140.963,215.859,140.916,216.126,140.916z"/>
	<path fill="#333333" d="M217.123,141.042h1.066l0.47,3.459c0.042,0.292,0.083,0.723,0.124,1.292c0.04,0.569,0.06,1.027,0.06,1.375
		h0.038c0.148-0.368,0.332-0.792,0.552-1.27s0.383-0.808,0.489-0.99l2.063-3.866h1.13l-4.418,8.138
		c-0.394,0.728-0.783,1.233-1.168,1.517s-0.849,0.425-1.39,0.425c-0.305,0-0.601-0.044-0.889-0.133v-0.857
		c0.267,0.076,0.544,0.114,0.832,0.114c0.347,0,0.645-0.107,0.892-0.32c0.248-0.214,0.488-0.53,0.721-0.949l0.482-0.863
		L217.123,141.042z"/>
	<path fill="#333333" d="M229.938,140.916c0.389,0,0.736,0.104,1.041,0.314c0.305,0.209,0.542,0.511,0.711,0.904h0.07l0.425-1.092
		h0.806L231.513,148h-0.844l0.165-1.327h-0.051c-0.757,0.969-1.555,1.454-2.393,1.454c-0.588,0-1.049-0.209-1.384-0.628
		s-0.501-0.992-0.501-1.72c0-0.88,0.15-1.697,0.451-2.45s0.715-1.344,1.244-1.771S229.308,140.916,229.938,140.916z
		 M228.732,147.244c0.411,0,0.819-0.196,1.225-0.587c0.406-0.391,0.736-0.901,0.99-1.529c0.254-0.629,0.381-1.258,0.381-1.889
		c0-0.436-0.119-0.783-0.355-1.041s-0.548-0.387-0.933-0.387c-0.44,0-0.85,0.182-1.228,0.546c-0.379,0.364-0.676,0.857-0.892,1.479
		s-0.324,1.278-0.324,1.968c0,0.482,0.1,0.843,0.298,1.082C228.093,147.125,228.373,147.244,228.732,147.244z"/>
	<path fill="#333333" d="M237.892,146.025c0,0.66-0.234,1.175-0.702,1.545c-0.467,0.371-1.126,0.556-1.977,0.556
		c-0.715,0-1.36-0.146-1.936-0.438v-1.003c0.296,0.178,0.616,0.315,0.958,0.413s0.66,0.146,0.952,0.146
		c0.533,0,0.935-0.106,1.206-0.317s0.406-0.482,0.406-0.812c0-0.241-0.074-0.444-0.222-0.609s-0.468-0.392-0.958-0.679
		c-0.55-0.309-0.939-0.611-1.168-0.908s-0.343-0.647-0.343-1.054c0-0.584,0.214-1.055,0.641-1.413
		c0.427-0.357,0.99-0.536,1.688-0.536c0.724,0,1.422,0.157,2.095,0.47l-0.343,0.87l-0.355-0.159
		c-0.427-0.182-0.893-0.273-1.396-0.273c-0.394,0-0.703,0.092-0.927,0.276c-0.224,0.185-0.336,0.422-0.336,0.714
		c0,0.237,0.075,0.44,0.225,0.609c0.15,0.169,0.46,0.387,0.93,0.654c0.453,0.254,0.778,0.472,0.974,0.654
		c0.197,0.182,0.344,0.377,0.441,0.587C237.843,145.527,237.892,145.763,237.892,146.025z"/>
	<path fill="#333333" d="M246.227,140.916c0.389,0,0.736,0.104,1.041,0.314c0.305,0.209,0.542,0.511,0.711,0.904h0.07l0.425-1.092
		h0.806L247.801,148h-0.844l0.165-1.327h-0.051c-0.757,0.969-1.555,1.454-2.393,1.454c-0.588,0-1.049-0.209-1.384-0.628
		s-0.501-0.992-0.501-1.72c0-0.88,0.15-1.697,0.451-2.45s0.715-1.344,1.244-1.771S245.596,140.916,246.227,140.916z
		 M245.021,147.244c0.411,0,0.819-0.196,1.225-0.587c0.406-0.391,0.736-0.901,0.99-1.529c0.254-0.629,0.381-1.258,0.381-1.889
		c0-0.436-0.119-0.783-0.355-1.041s-0.548-0.387-0.933-0.387c-0.44,0-0.85,0.182-1.228,0.546c-0.379,0.364-0.676,0.857-0.892,1.479
		s-0.324,1.278-0.324,1.968c0,0.482,0.1,0.843,0.298,1.082C244.381,147.125,244.661,147.244,245.021,147.244z"/>
	<path fill="#333333" d="M252.974,148.126c-0.411,0-0.771-0.108-1.083-0.324c-0.311-0.216-0.544-0.51-0.701-0.882h-0.063
		L250.683,148h-0.793l2.095-9.877h1.066c-0.216,1.024-0.382,1.808-0.499,2.352c-0.116,0.544-0.276,1.18-0.479,1.908h0.057
		c0.394-0.5,0.782-0.867,1.165-1.101c0.383-0.235,0.777-0.353,1.184-0.353c0.597,0,1.062,0.209,1.396,0.628s0.501,0.995,0.501,1.727
		c0,0.884-0.145,1.702-0.435,2.454c-0.29,0.751-0.694,1.337-1.212,1.758C254.211,147.916,253.626,148.126,252.974,148.126z
		 M254.155,141.811c-0.406,0-0.82,0.201-1.241,0.603c-0.421,0.402-0.756,0.908-1.003,1.517c-0.248,0.609-0.372,1.233-0.372,1.873
		c0,0.465,0.118,0.822,0.352,1.069c0.235,0.248,0.575,0.372,1.019,0.372c0.419,0,0.809-0.171,1.171-0.514
		c0.361-0.343,0.652-0.831,0.873-1.463c0.22-0.633,0.33-1.305,0.33-2.016C255.285,142.291,254.908,141.811,254.155,141.811z"/>
	<path fill="#333333" d="M261.683,146.025c0,0.66-0.234,1.175-0.702,1.545c-0.467,0.371-1.126,0.556-1.977,0.556
		c-0.715,0-1.36-0.146-1.936-0.438v-1.003c0.296,0.178,0.616,0.315,0.958,0.413s0.66,0.146,0.952,0.146
		c0.533,0,0.935-0.106,1.206-0.317s0.406-0.482,0.406-0.812c0-0.241-0.074-0.444-0.222-0.609s-0.468-0.392-0.958-0.679
		c-0.55-0.309-0.939-0.611-1.168-0.908s-0.343-0.647-0.343-1.054c0-0.584,0.214-1.055,0.641-1.413
		c0.427-0.357,0.99-0.536,1.688-0.536c0.724,0,1.422,0.157,2.095,0.47l-0.343,0.87l-0.355-0.159
		c-0.427-0.182-0.893-0.273-1.396-0.273c-0.394,0-0.703,0.092-0.927,0.276c-0.224,0.185-0.336,0.422-0.336,0.714
		c0,0.237,0.075,0.44,0.225,0.609c0.15,0.169,0.46,0.387,0.93,0.654c0.453,0.254,0.778,0.472,0.974,0.654
		c0.197,0.182,0.344,0.377,0.441,0.587C261.634,145.527,261.683,145.763,261.683,146.025z"/>
	<path fill="#333333" d="M265.092,147.257c0.233,0,0.538-0.055,0.914-0.165v0.819c-0.144,0.059-0.322,0.11-0.533,0.152
		s-0.381,0.063-0.508,0.063c-0.529,0-0.934-0.126-1.215-0.378c-0.282-0.251-0.422-0.627-0.422-1.126
		c0-0.279,0.038-0.597,0.114-0.952l0.806-3.821h-1.092l0.089-0.463l1.174-0.495l0.793-1.447h0.622l-0.349,1.6h1.739l-0.165,0.806
		h-1.733l-0.819,3.834c-0.076,0.368-0.114,0.647-0.114,0.838c0,0.237,0.062,0.419,0.184,0.546S264.872,147.257,265.092,147.257z"/>
	<path fill="#333333" d="M271.573,140.916c0.292,0,0.546,0.03,0.762,0.089l-0.229,0.952c-0.224-0.055-0.446-0.083-0.667-0.083
		c-0.385,0-0.746,0.127-1.083,0.381c-0.336,0.254-0.63,0.606-0.882,1.057c-0.252,0.45-0.437,0.951-0.556,1.501L268.24,148h-1.066
		l1.485-6.957h0.882l-0.14,1.289h0.063c0.305-0.402,0.557-0.691,0.755-0.867c0.199-0.175,0.407-0.311,0.625-0.406
		C271.064,140.963,271.306,140.916,271.573,140.916z"/>
	<path fill="#333333" d="M276.003,140.916c0.389,0,0.736,0.104,1.041,0.314c0.305,0.209,0.542,0.511,0.711,0.904h0.07l0.425-1.092
		h0.806L277.578,148h-0.844l0.165-1.327h-0.051c-0.757,0.969-1.555,1.454-2.393,1.454c-0.588,0-1.049-0.209-1.384-0.628
		s-0.501-0.992-0.501-1.72c0-0.88,0.15-1.697,0.451-2.45s0.715-1.344,1.244-1.771S275.373,140.916,276.003,140.916z
		 M274.797,147.244c0.411,0,0.819-0.196,1.225-0.587c0.406-0.391,0.736-0.901,0.99-1.529c0.254-0.629,0.381-1.258,0.381-1.889
		c0-0.436-0.119-0.783-0.355-1.041s-0.548-0.387-0.933-0.387c-0.44,0-0.85,0.182-1.228,0.546c-0.379,0.364-0.676,0.857-0.892,1.479
		s-0.324,1.278-0.324,1.968c0,0.482,0.1,0.843,0.298,1.082C274.158,147.125,274.438,147.244,274.797,147.244z"/>
	<path fill="#333333" d="M282.503,148.126c-0.821,0-1.458-0.227-1.911-0.679s-0.679-1.092-0.679-1.917
		c0-0.846,0.157-1.627,0.47-2.342s0.746-1.272,1.298-1.673c0.553-0.399,1.173-0.6,1.863-0.6c0.58,0,1.147,0.108,1.701,0.324
		l-0.298,0.895c-0.508-0.216-0.971-0.324-1.39-0.324c-0.474,0-0.907,0.162-1.298,0.486c-0.392,0.323-0.698,0.774-0.921,1.352
		c-0.222,0.578-0.333,1.205-0.333,1.882c0,0.542,0.141,0.963,0.422,1.263c0.282,0.3,0.67,0.451,1.165,0.451
		c0.305,0,0.592-0.042,0.863-0.127s0.538-0.184,0.8-0.298v0.908C283.73,147.993,283.146,148.126,282.503,148.126z"/>
	<path fill="#333333" d="M287.651,147.257c0.233,0,0.538-0.055,0.914-0.165v0.819c-0.144,0.059-0.322,0.11-0.533,0.152
		s-0.381,0.063-0.508,0.063c-0.529,0-0.934-0.126-1.215-0.378c-0.282-0.251-0.422-0.627-0.422-1.126
		c0-0.279,0.038-0.597,0.114-0.952l0.806-3.821h-1.092l0.089-0.463l1.174-0.495l0.793-1.447h0.622l-0.349,1.6h1.739l-0.165,0.806
		h-1.733l-0.819,3.834c-0.076,0.368-0.114,0.647-0.114,0.838c0,0.237,0.062,0.419,0.184,0.546S287.431,147.257,287.651,147.257z"/>
	<path fill="#333333" d="M290.8,148h-1.066l1.485-6.957h1.066L290.8,148z M291.517,139.265c0-0.237,0.068-0.431,0.203-0.581
		c0.135-0.15,0.311-0.225,0.527-0.225c0.373,0,0.559,0.19,0.559,0.571c0,0.233-0.071,0.43-0.212,0.59
		c-0.142,0.161-0.306,0.241-0.492,0.241c-0.169,0-0.309-0.052-0.419-0.155C291.572,139.603,291.517,139.456,291.517,139.265z"/>
	<path fill="#333333" d="M296.741,140.954c0.804,0,1.439,0.238,1.904,0.714c0.465,0.477,0.698,1.131,0.698,1.965
		c0,0.795-0.152,1.547-0.457,2.253s-0.717,1.252-1.238,1.638s-1.109,0.578-1.765,0.578c-0.812,0-1.449-0.239-1.911-0.717
		s-0.692-1.132-0.692-1.961c0-0.804,0.154-1.561,0.463-2.27c0.309-0.708,0.726-1.252,1.25-1.631
		C295.521,141.143,296.102,140.954,296.741,140.954z M298.239,143.486c0-0.487-0.132-0.881-0.397-1.184
		c-0.264-0.302-0.623-0.454-1.076-0.454c-0.461,0-0.875,0.157-1.241,0.47c-0.366,0.313-0.65,0.748-0.851,1.304
		c-0.201,0.557-0.302,1.176-0.302,1.857c0,0.554,0.134,0.983,0.403,1.286c0.269,0.302,0.655,0.454,1.158,0.454
		c0.44,0,0.836-0.154,1.187-0.463s0.625-0.748,0.822-1.317C298.141,144.869,298.239,144.218,298.239,143.486z"/>
	<path fill="#333333" d="M304.581,148l0.939-4.393c0.084-0.44,0.127-0.745,0.127-0.914c0-0.267-0.075-0.48-0.225-0.641
		c-0.15-0.161-0.391-0.241-0.721-0.241c-0.376,0-0.744,0.127-1.102,0.381c-0.357,0.254-0.673,0.616-0.945,1.085
		c-0.273,0.47-0.479,1.039-0.619,1.708L301.394,148h-1.066l1.485-6.957h0.882l-0.14,1.289h0.063
		c0.406-0.516,0.799-0.881,1.178-1.095c0.378-0.213,0.771-0.32,1.177-0.32c0.538,0,0.961,0.147,1.273,0.441
		c0.311,0.294,0.466,0.706,0.466,1.234c0,0.334-0.049,0.715-0.146,1.143L305.66,148H304.581z"/>
	<path fill="#333333" d="M312.261,148h-1.066l2.107-9.877h1.066L312.261,148z"/>
	<path fill="#333333" d="M318.19,140.916c0.389,0,0.736,0.104,1.041,0.314c0.305,0.209,0.542,0.511,0.711,0.904h0.07l0.425-1.092
		h0.806L319.764,148h-0.844l0.165-1.327h-0.051c-0.757,0.969-1.555,1.454-2.393,1.454c-0.588,0-1.049-0.209-1.384-0.628
		s-0.501-0.992-0.501-1.72c0-0.88,0.15-1.697,0.451-2.45s0.715-1.344,1.244-1.771S317.56,140.916,318.19,140.916z M316.984,147.244
		c0.411,0,0.819-0.196,1.225-0.587c0.406-0.391,0.736-0.901,0.99-1.529c0.254-0.629,0.381-1.258,0.381-1.889
		c0-0.436-0.119-0.783-0.355-1.041s-0.548-0.387-0.933-0.387c-0.44,0-0.85,0.182-1.228,0.546c-0.379,0.364-0.676,0.857-0.892,1.479
		s-0.324,1.278-0.324,1.968c0,0.482,0.1,0.843,0.298,1.082C316.345,147.125,316.624,147.244,316.984,147.244z"/>
	<path fill="#333333" d="M322.1,141.042h1.066l0.47,3.459c0.042,0.292,0.083,0.723,0.124,1.292c0.04,0.569,0.06,1.027,0.06,1.375
		h0.038c0.148-0.368,0.332-0.792,0.552-1.27s0.383-0.808,0.489-0.99l2.063-3.866h1.13l-4.418,8.138
		c-0.394,0.728-0.783,1.233-1.168,1.517s-0.849,0.425-1.39,0.425c-0.305,0-0.601-0.044-0.889-0.133v-0.857
		c0.267,0.076,0.544,0.114,0.832,0.114c0.347,0,0.645-0.107,0.892-0.32c0.248-0.214,0.488-0.53,0.721-0.949l0.482-0.863
		L322.1,141.042z"/>
	<path fill="#333333" d="M330.606,148.126c-0.778,0-1.391-0.23-1.834-0.692c-0.445-0.461-0.667-1.1-0.667-1.917
		c0-0.795,0.157-1.558,0.473-2.289c0.315-0.729,0.733-1.298,1.254-1.704s1.094-0.609,1.72-0.609c0.648,0,1.135,0.141,1.461,0.422
		c0.325,0.282,0.488,0.674,0.488,1.178c0,0.762-0.352,1.359-1.054,1.793c-0.702,0.434-1.708,0.651-3.015,0.651h-0.21l-0.025,0.508
		c0,0.554,0.13,0.987,0.391,1.298c0.26,0.311,0.663,0.466,1.209,0.466c0.267,0,0.541-0.038,0.822-0.114s0.632-0.216,1.05-0.419
		v0.927c-0.397,0.186-0.748,0.316-1.053,0.39C331.311,148.089,330.974,148.126,330.606,148.126z M331.489,141.823
		c-0.437,0-0.846,0.199-1.229,0.597s-0.676,0.95-0.879,1.657h0.076c0.965,0,1.704-0.126,2.218-0.378
		c0.515-0.251,0.771-0.617,0.771-1.095c0-0.224-0.077-0.411-0.231-0.559S331.819,141.823,331.489,141.823z"/>
	<path fill="#333333" d="M338.667,140.916c0.292,0,0.546,0.03,0.762,0.089l-0.229,0.952c-0.225-0.055-0.446-0.083-0.666-0.083
		c-0.386,0-0.746,0.127-1.083,0.381c-0.336,0.254-0.63,0.606-0.882,1.057c-0.252,0.45-0.438,0.951-0.556,1.501L335.335,148h-1.066
		l1.484-6.957h0.883l-0.14,1.289h0.063c0.305-0.402,0.557-0.691,0.756-0.867c0.198-0.175,0.407-0.311,0.625-0.406
		C338.159,140.963,338.401,140.916,338.667,140.916z"/>
</g>
<g>
	<g>
		<line fill="none" stroke="#000000" stroke-miterlimit="10" x1="263.559" y1="100" x2="257.932" y2="102.083"/>
		
			<line fill="none" stroke="#000000" stroke-miterlimit="10" stroke-dasharray="11.042,11.042" x1="247.577" y1="105.917" x2="128.491" y2="150"/>
		<line fill="none" stroke="#000000" stroke-miterlimit="10" x1="123.314" y1="151.917" x2="117.687" y2="154"/>
	</g>
</g>
<g>
</g>
<g>
</g>
<g>
</g>
<g>
</g>
<g>
</g>
<g>
</g>
</svg>
